<svg width="249" height="185" viewBox="0 0 249 185" fill="none" xmlns="http://www.w3.org/2000/svg">
<path d="M15.6801 98.8201C15.1101 44.0701 47.2601 65.92 78.4201 39.44C121.32 2.98005 143.02 0.640045 166.36 0.970045C223.72 1.78005 261.27 52.34 244.18 125.35C227.09 198.36 114.18 196.12 79.9601 158.35C45.7401 120.58 15.9701 130.03 15.6801 98.8201Z" fill="#3F408B"/>
<path d="M155.81 166.27L73.7301 165.65C72.8701 163.23 75.9801 161.06 78.5401 160.9C81.1001 160.74 83.9101 161.39 86.0801 160.03C89.2001 158.08 88.9101 153.55 90.2501 150.13C90.8879 148.491 91.9509 147.052 93.3295 145.96C94.7082 144.868 96.3529 144.163 98.0943 143.918C99.8358 143.672 101.611 143.895 103.238 144.563C104.865 145.232 106.284 146.321 107.35 147.72C110.14 151.37 110.67 157.16 114.93 158.87C119.58 160.74 125.08 156.04 129.63 158.13C132.29 159.35 133.63 162.53 136.32 163.69C138.48 164.62 140.98 164.01 143.2 163.21C145.42 162.41 147.66 161.4 150.01 161.57C152.36 161.74 156.07 163.92 155.81 166.27Z" fill="#BBBCF5"/>
<path d="M172.78 18.8401C171.435 18.3169 169.986 18.1168 168.55 18.2557C167.113 18.3947 165.73 18.8688 164.51 19.6401C164.286 18.3204 163.647 17.1063 162.687 16.1734C161.727 15.2404 160.496 14.6369 159.17 14.4501C153.43 13.8501 150.51 21.3001 152.64 25.1001C151.058 26.0416 149.794 27.4346 149.01 29.1001C148.667 29.9642 148.609 30.9156 148.844 31.8151C149.08 32.7147 149.597 33.5153 150.32 34.1001C151.83 35.1601 154.32 34.5501 154.87 32.7801C154.05 35.3501 156.09 38.1801 158.67 38.9601C161.25 39.7401 164.06 38.8901 166.38 37.5201C167.437 36.9503 168.371 36.1759 169.126 35.2419C169.882 34.308 170.444 33.2332 170.78 32.0801C171.063 32.1103 171.348 32.1103 171.63 32.0801C173.149 31.9184 174.563 31.2295 175.626 30.1333C176.689 29.0371 177.335 27.6029 177.45 26.0801C177.485 24.5447 177.058 23.0341 176.226 21.7435C175.393 20.453 174.193 19.4416 172.78 18.8401Z" fill="#BBBCF5"/>
<path d="M224.59 154.72C224.832 154.495 225.044 154.24 225.22 153.96C225.316 154.009 225.417 154.049 225.52 154.08C237.15 157.66 245.41 140.96 235.52 135.27C234.822 134.883 234.051 134.644 233.256 134.568C232.461 134.492 231.659 134.581 230.9 134.83C231.633 133.885 232.131 132.779 232.352 131.604C232.573 130.428 232.51 129.217 232.17 128.07C231.506 126.314 230.354 124.783 228.85 123.658C227.346 122.534 225.553 121.861 223.68 121.72C219.14 121.49 215.88 124.72 214.58 128.22C213.976 129.623 213.715 131.149 213.82 132.673C213.924 134.196 214.39 135.673 215.18 136.98C215.505 137.488 215.899 137.949 216.35 138.35C215.475 138.358 214.617 138.596 213.862 139.04C213.107 139.484 212.483 140.119 212.05 140.88C211.804 141.562 211.714 142.291 211.786 143.013C211.859 143.734 212.093 144.431 212.47 145.05C199.85 151.44 214.05 164.9 224.59 154.72Z" fill="#BBBCF5"/>
<path d="M164.88 146.76L98.3401 115.66L100.04 108.75L104.26 109.91L111.54 81.2501L107.4 78.7301L108.69 73.4801L169.38 95.2001L164.88 146.76Z" fill="#8072D0"/>
<path d="M153.7 131.8L115.9 113.91L110.44 111.32L118.12 84.8701L122.91 86.6601L158.61 100.05L153.7 131.8Z" fill="#1E1840"/>
<path d="M212.38 101.08L205.47 135.36L208.29 137.05L206.52 144.84L164.88 146.76L169.38 95.2001L218.31 92.9501L216.59 100.52L212.38 101.08Z" fill="#1E1840"/>
<path d="M108.69 73.4801L157.99 71.9301L218.3 92.9501L169.38 95.2001L108.69 73.4801Z" fill="#8072D0"/>
<path d="M198.28 56.8801C198.28 56.8801 188.19 79.8801 171.64 82.4201C170.033 82.6732 168.399 82.7202 166.78 82.5601L162.68 81.0401L121.62 65.7701L111.78 62.1101H111.64H111.75C113.095 62.3169 114.47 62.1828 115.75 61.7201C124.42 58.5601 127.9 41.1001 143.17 39.6101L198.28 56.8801Z" fill="#8072D0"/>
<path d="M218.3 92.9501L167.11 90.1901L166.78 82.5701C181.38 82.0201 182.27 48.5701 200.45 57.8101C217.17 66.3001 212.35 82.3901 221.45 81.8101L218.3 92.9501Z" fill="#1E1840"/>
<path d="M166.78 82.56L111.63 62.05L109.69 69.63L167.11 90.19L166.78 82.56Z" fill="#8072D0"/>
<path d="M172.41 82.7201L170.65 83.2501C170.25 83.3701 169.85 83.5301 169.44 83.6701C167.19 82.8101 164.92 81.9401 162.67 81.0601L159.67 79.8801C154.45 77.7801 149.24 75.7001 143.97 73.7401C136.55 70.9801 129.06 68.4201 121.59 65.7901C118.43 64.6701 115.27 63.5401 112.12 62.3701C111.976 62.329 111.847 62.2454 111.75 62.1301C113.095 62.3369 114.47 62.2028 115.75 61.7401C120.69 63.6001 125.617 65.5101 130.53 67.4701C141.01 71.6601 151.6 75.4701 162.29 79.1301C165.44 80.2001 168.56 81.3201 171.68 82.4801L172.41 82.7201Z" fill="#1E1840"/>
<path d="M169.85 101.03L165.62 100.69L160.99 136.78L168.66 139.24L169.85 101.03Z" fill="#1E1840"/>
<path d="M206.39 101.56C205.718 101.621 205.05 101.721 204.39 101.86C203.73 101.93 203.07 101.95 202.39 101.99C201.07 102.06 199.74 102.12 198.39 102.17C195.783 102.29 193.173 102.393 190.56 102.48C187.947 102.567 185.337 102.647 182.73 102.72C181.4 102.72 180.08 102.8 178.73 102.82C177.427 102.708 176.115 102.819 174.85 103.15C174.15 103.44 174.45 104.45 175.04 104.63C175.698 104.771 176.375 104.791 177.04 104.69C177.7 104.69 178.36 104.6 179.04 104.56C180.36 104.46 181.69 104.38 183.04 104.3C185.61 104.14 188.17 103.99 190.74 103.85C193.31 103.71 195.88 103.58 198.45 103.46L202.45 103.29C203.12 103.29 203.78 103.29 204.45 103.29C204.785 103.302 205.119 103.332 205.45 103.38C204.59 108.38 203.88 113.48 202.98 118.51C202.53 121.05 202.03 123.58 201.5 126.11C201.22 127.41 200.95 128.71 200.64 130C200.33 131.29 199.85 132.56 199.64 133.85C199.45 134.85 201.03 135.31 201.23 134.27C201.48 132.96 201.5 131.59 201.68 130.27C201.86 128.95 202.08 127.62 202.3 126.27C202.73 123.72 203.19 121.18 203.7 118.64C204.7 113.51 205.95 108.41 207 103.28C207.005 103.224 207.005 103.167 207 103.11C207.147 102.994 207.252 102.835 207.301 102.654C207.35 102.474 207.339 102.283 207.271 102.109C207.202 101.935 207.08 101.788 206.921 101.689C206.762 101.59 206.576 101.545 206.39 101.56Z" fill="#8072D0"/>
<path d="M201.34 62.3601C199.58 61.3601 197.08 61.8601 195.34 62.6201C193.343 63.5418 191.637 64.9948 190.41 66.8202C187.75 70.6202 186.82 75.4102 183.9 79.0402C182.416 80.8611 180.356 82.1235 178.06 82.6201C177.875 82.6897 177.723 82.8252 177.632 83.0006C177.541 83.176 177.518 83.3788 177.567 83.5701C177.617 83.7613 177.736 83.9274 177.901 84.0364C178.065 84.1453 178.265 84.1894 178.46 84.1601C180.37 83.5797 182.063 82.4408 183.32 80.8901C184.713 79.3661 185.927 77.6887 186.94 75.8901C189.09 72.1001 190.83 67.6002 194.58 65.0702C195.517 64.4057 196.558 63.9022 197.66 63.5801C198.787 63.3587 199.942 63.3215 201.08 63.4701C201.227 63.5046 201.382 63.4792 201.511 63.3995C201.639 63.3198 201.731 63.1923 201.765 63.0451C201.8 62.8979 201.774 62.7431 201.695 62.6146C201.615 62.4862 201.487 62.3946 201.34 62.3601Z" fill="#8072D0"/>
<path d="M213.48 83.7201C212.371 83.4133 211.217 83.3049 210.07 83.4001C208.95 83.4001 207.83 83.4001 206.71 83.4001C204.43 83.4001 202.15 83.5001 199.88 83.5701C197.61 83.6401 195.32 83.6501 193.04 83.5701C190.76 83.4901 188.48 83.2801 186.2 83.1601C183.63 83.0401 181.07 82.8301 178.5 82.7401C178.288 82.7401 178.085 82.8244 177.935 82.9744C177.784 83.1245 177.7 83.3279 177.7 83.5401C177.7 83.7523 177.784 83.9558 177.935 84.1058C178.085 84.2558 178.288 84.3401 178.5 84.3401C183.06 84.4001 187.61 84.2001 192.17 84.1901C196.73 84.1801 201.29 84.6801 205.84 84.9901C207.08 85.0801 208.33 85.1401 209.57 85.2001C210.871 85.3941 212.197 85.3467 213.48 85.0601C213.615 85.0072 213.73 84.9149 213.812 84.7954C213.893 84.6759 213.937 84.5347 213.937 84.3901C213.937 84.2455 213.893 84.1043 213.812 83.9848C213.73 83.8653 213.615 83.773 213.48 83.7201Z" fill="#8072D0"/>
<path d="M117.35 85.4302C116.41 89.6702 115.35 93.8802 114.22 98.0702C113.66 100.15 113.047 102.213 112.38 104.26C111.7 106.34 111.14 108.47 110.38 110.53C109.95 111.68 112 112.24 112.23 111.01C112.63 108.9 113.23 106.83 113.68 104.73C114.13 102.63 114.68 100.46 115.28 98.3502C116.45 94.1702 117.67 90.0102 119.02 85.8802C119.38 84.8102 117.59 84.3302 117.35 85.4302Z" fill="#8072D0"/>
<path d="M29.0701 39.2401C36.0701 39.4101 41.0701 63.5001 40.3701 93.0501C39.6701 122.6 33.4201 146.41 26.4501 146.24" stroke="#8072D0" stroke-miterlimit="10"/>
<path d="M89.9701 85.21C78.2001 88.12 70.5901 96.96 53.9701 104.65C50.7849 106.14 47.5083 107.426 44.1601 108.5C42.2912 109.106 40.392 109.613 38.4701 110.02C36.4205 110.458 34.3416 110.745 32.2501 110.88C30.93 110.988 29.6013 110.917 28.3001 110.67C25.1741 110.123 22.2931 108.625 20.0501 106.38C17.8768 104.235 16.3496 101.523 15.6424 98.5532C14.9352 95.583 15.0764 92.4738 16.0501 89.58C16.4753 88.2999 17.0634 87.0799 17.8001 85.95L37.2101 83.72L37.7801 83.61L38.2701 83.54L39.7901 83.34C53.6265 81.4498 67.3451 78.7788 80.8801 75.34L89.9701 85.21Z" fill="#F2C7C4"/>
<path d="M38.45 110.02C36.4004 110.458 34.3216 110.745 32.23 110.88C30.9099 110.988 29.5813 110.917 28.2801 110.67C25.1541 110.123 22.2731 108.625 20.0301 106.38C17.8568 104.235 16.3295 101.523 15.6223 98.5533C14.9151 95.583 15.0564 92.4739 16.0301 89.58C16.4552 88.2999 17.0434 87.0799 17.7801 85.95L37.21 83.72L37.7801 83.61C37.2643 85.1863 36.86 86.797 36.5701 88.43C35.8691 93.0722 35.8927 97.795 36.64 102.43C37.0784 104.997 37.683 107.532 38.45 110.02Z" fill="#8072D0"/>
<path d="M80.3501 76.57L84.7901 58.57C84.9891 57.7298 85.4614 56.9794 86.1328 56.4365C86.8042 55.8935 87.6368 55.5888 88.5001 55.57L93.9001 55.47L80.3501 76.57Z" fill="#F2C7C4"/>
<path d="M82.6101 69.52C83.5601 67.17 84.3301 64.75 85.1101 62.34C85.8001 60.22 86.4701 57.45 88.2501 55.95C88.2785 55.9285 88.312 55.9149 88.3474 55.9107C88.3827 55.9065 88.4186 55.9118 88.4512 55.9261C88.4838 55.9403 88.512 55.9631 88.5329 55.9919C88.5538 56.0207 88.5667 56.0546 88.5701 56.09C88.7601 58.42 87.2401 60.86 86.2201 62.84C85.0601 65.08 83.8801 67.32 82.8901 69.64C82.8822 69.6584 82.8708 69.675 82.8565 69.689C82.8422 69.703 82.8252 69.714 82.8067 69.7214C82.7881 69.7289 82.7682 69.7325 82.7482 69.7323C82.7282 69.7321 82.7085 69.7279 82.6901 69.72C82.6717 69.7121 82.6551 69.7007 82.6411 69.6864C82.6271 69.6721 82.6161 69.6551 82.6087 69.6366C82.6013 69.618 82.5975 69.5981 82.5978 69.5781C82.598 69.5581 82.6022 69.5384 82.6101 69.52Z" fill="#8072D0"/>
<path d="M80.8801 75.32L91.08 50.72L102.68 73.38C98.3901 80.84 89.8601 90.88 75.5701 83.06L80.8801 75.32Z" fill="#F2C7C4"/>
<path d="M92.3801 62.41L107.46 53.47L114.83 59.47C115.121 59.7235 115.311 60.0745 115.362 60.4572C115.414 60.84 115.324 61.2284 115.11 61.55C114.886 61.8928 114.539 62.1361 114.14 62.2292C113.742 62.3223 113.323 62.2581 112.97 62.05L107.14 59.37L103.77 62.37L99.1601 71.37L92.3801 62.41Z" fill="#F2C7C4"/>
<path d="M102.68 73.3801L106.78 67.1001L110.68 65.7201L113.22 69.2301C113.429 69.5165 113.731 69.7205 114.075 69.8064C114.418 69.8924 114.781 69.8547 115.1 69.7001C115.445 69.5292 115.711 69.2333 115.845 68.8728C115.978 68.5123 115.97 68.1143 115.82 67.7601L113.01 61.5601L105.67 61.2101L99.4501 64.3501L96.1101 68.6201L102.68 73.3801Z" fill="#F2C7C4"/>
<path d="M91.0701 50.75L95.9401 45.96L98.2301 50.34L104.27 50.89L109.94 55.47L94.6001 62.87L91.0701 50.75Z" fill="#F2C7C4"/>
<path d="M95.9401 45.97L103.77 40.3C104.159 40.0167 104.637 39.8829 105.116 39.9233C105.595 39.9637 106.044 40.1756 106.38 40.52C106.736 40.8815 106.941 41.3644 106.954 41.8712C106.967 42.378 106.787 42.8708 106.45 43.25L96.39 52.15L95.9401 45.97Z" fill="#F2C7C4"/>
<path d="M100.38 51.34C99.93 51.54 99.5 51.76 99.03 51.93C98.56 52.1 98.1 52.33 97.63 52.56C96.7207 52.9741 95.7771 53.3087 94.81 53.56C94.23 54.49 93.62 55.39 93.06 56.33C92.5 57.27 92 58.23 91.52 59.21C91.4 59.47 91.03 59.29 91.12 59.03C91.8188 56.8794 92.8008 54.8314 94.04 52.94C94.0929 52.8651 94.171 52.8118 94.26 52.79C94.3167 52.7096 94.3922 52.6443 94.48 52.6C95.4049 52.1475 96.3824 51.8116 97.39 51.6C97.87 51.49 98.3401 51.4 98.8201 51.28C99.0656 51.2002 99.3162 51.1368 99.5701 51.09C99.8201 51.09 100.08 51.03 100.34 50.98C100.6 50.93 100.57 51.26 100.38 51.34Z" fill="#8072D0"/>
<path d="M106.55 54.23C105.3 54.73 104.09 55.23 102.88 55.84C102.28 56.12 101.68 56.37 101.08 56.65L100.18 57.06C99.9599 57.1858 99.7247 57.2833 99.48 57.35C99.36 57.56 99.21 57.75 99.08 57.97L98.72 58.6C98.45 59.08 98.19 59.6 97.93 60.04C97.67 60.48 97.44 60.97 97.18 61.43C96.92 61.89 96.61 62.37 96.35 62.86C96.3303 62.8892 96.301 62.9106 96.267 62.9204C96.2331 62.9301 96.1969 62.9276 96.1646 62.9133C96.1324 62.899 96.1063 62.8737 96.0908 62.842C96.0753 62.8103 96.0715 62.7742 96.08 62.74C96.26 62.19 96.4 61.64 96.6 61.11C96.8 60.58 97 60.11 97.23 59.66C97.46 59.21 97.7 58.72 97.94 58.25C98.18 57.78 98.44 57.25 98.73 56.75C98.7474 56.7275 98.7676 56.7074 98.79 56.69C98.97 56.34 99.31 56.22 99.64 56.04C99.97 55.86 100.22 55.73 100.52 55.59C101.152 55.2883 101.799 55.0212 102.46 54.79C103.767 54.3606 105.104 54.0264 106.46 53.79C106.68 53.72 106.81 54.13 106.55 54.23Z" fill="#8072D0"/>
<path d="M11.6101 65.32C14.1401 59.72 18.0301 54.45 23.6101 51.8C29.1901 49.15 36.5301 49.8 40.6101 54.39C44.2801 58.58 44.4401 64.92 42.6701 70.2C40.9001 75.48 37.5101 80.02 34.5501 84.73C31.5901 89.44 28.9301 94.65 28.9501 100.21C28.9501 106.68 32.5701 112.54 34.2401 118.79C35.3901 123.1 35.5701 127.89 33.5001 131.84C31.4301 135.79 26.6301 138.49 22.3801 137.13C19.2001 136.13 17.0101 133.18 15.6101 130.13C14.2101 127.08 13.38 123.81 11.7301 120.9C8.09005 114.51 0.510069 109.76 0.530069 102.41C0.530069 96.55 4.74006 90.84 6.18006 85.19C7.83006 78.46 8.68005 71.72 11.6101 65.32Z" fill="white"/>
<mask id="mask0_13_925" style="mask-type:luminance" maskUnits="userSpaceOnUse" x="0" y="50" width="44" height="88">
<path d="M11.6101 65.32C14.1401 59.72 18.0301 54.45 23.6101 51.8C29.1901 49.15 36.5301 49.8 40.6101 54.39C44.2801 58.58 44.4401 64.92 42.6701 70.2C40.9001 75.48 37.5101 80.02 34.5501 84.73C31.5901 89.44 28.9301 94.65 28.9501 100.21C28.9501 106.68 32.5701 112.54 34.2401 118.79C35.3901 123.1 35.5701 127.89 33.5001 131.84C31.4301 135.79 26.6301 138.49 22.3801 137.13C19.2001 136.13 17.0101 133.18 15.6101 130.13C14.2101 127.08 13.38 123.81 11.7301 120.9C8.09005 114.51 0.510069 109.76 0.530069 102.41C0.530069 96.55 4.74006 90.84 6.18006 85.19C7.83006 78.46 8.68005 71.72 11.6101 65.32Z" fill="white"/>
</mask>
<g mask="url(#mask0_13_925)">
<path d="M29.52 50.72C29.7103 46.1739 28.4189 41.6889 25.84 37.94C25.7298 37.8149 25.5775 37.7346 25.4119 37.7145C25.2464 37.6943 25.0792 37.7357 24.9422 37.8308C24.8051 37.9258 24.7078 38.0679 24.6687 38.23C24.6296 38.3921 24.6514 38.563 24.73 38.71C29.35 45.32 28.9 54.25 25.23 61.17C20.9 69.34 12.82 74.72 4.51003 78.24C-0.409968 80.32 -5.53997 81.7 -10.55 83.53C-10.7157 83.5884 -10.8515 83.7102 -10.9275 83.8687C-11.0034 84.0271 -11.0133 84.2093 -10.955 84.375C-10.8966 84.5408 -10.7748 84.6766 -10.6163 84.7525C-10.4579 84.8285 -10.2757 84.8384 -10.11 84.78C-5.25604 83.5987 -0.501621 82.0406 4.11004 80.12C8.63697 78.3387 12.9076 75.9647 16.8101 73.06C23.8901 67.62 29.25 59.83 29.52 50.72Z" fill="#BBBCF5"/>
<path d="M34.8801 58.19C36.1644 52.8678 36.0956 47.3088 34.6801 42.02C34.5201 41.42 33.68 41.74 33.79 42.33C36.04 51.88 33.1601 61.88 28.0701 70.03C22.2801 79.3 13.6801 86.46 5.35008 93.35C0.454372 97.23 -4.19466 101.411 -8.56994 105.87C-9.27994 106.63 -8.11994 107.98 -7.31994 107.26C1.13006 99.68 10.3101 92.91 18.4001 84.94C25.9201 77.52 32.4801 68.65 34.8801 58.19Z" fill="#BBBCF5"/>
<path d="M38.91 146.39C35.32 137.19 27.12 130.86 22.54 122.24C20.1026 117.739 19.0583 112.616 19.54 107.52C20.0211 102.05 22.3248 96.899 26.0817 92.8936C29.8387 88.8882 34.8315 86.26 40.26 85.4301C40.97 85.33 40.91 84.23 40.19 84.32C34.956 84.96 30.0482 87.2036 26.1398 90.7432C22.2314 94.2828 19.5139 98.9449 18.36 104.09C17.231 109.347 17.8272 114.828 20.06 119.72C22.14 124.31 25.23 128.39 28.28 132.37C31.78 136.95 35.28 141.52 37.64 146.82C37.98 147.62 39.23 147.21 38.91 146.39Z" fill="#BBBCF5"/>
<path d="M36.17 131.09C35.43 130.23 34.53 129.5 33.76 128.66C32.9498 127.777 32.2203 126.823 31.58 125.81C30.3357 123.851 29.4266 121.698 28.89 119.44C27.8512 114.989 28.5109 110.31 30.7401 106.32C32.0034 104.044 33.7554 102.077 35.8701 100.56C36.3301 100.23 35.87 99.44 35.36 99.76C31.2963 102.459 28.4556 106.646 27.45 111.42C26.4761 116.323 27.3411 121.414 29.8801 125.72C30.576 126.941 31.3863 128.092 32.3 129.16C33.1796 130.31 34.2646 131.286 35.5001 132.04C36.1501 132.36 36.62 131.6 36.17 131.09Z" fill="#BBBCF5"/>
</g>
<path d="M38.01 137.6C37.2609 138.104 36.6846 138.826 36.3592 139.669C36.0337 140.511 35.9746 141.433 36.19 142.31C36.4376 143.18 36.9729 143.941 37.7085 144.467C38.4441 144.994 39.3365 145.256 40.24 145.21C43.07 145 44.5 142 44.03 139.45C43.51 136.72 40.15 136.19 38.01 137.6Z" fill="white"/>
<path d="M42.08 131.25C41.7888 131.443 41.5583 131.714 41.4149 132.033C41.2716 132.352 41.2213 132.704 41.27 133.05C41.339 133.413 41.5213 133.746 41.7908 133.999C42.0603 134.252 42.4031 134.414 42.77 134.46C43.1383 134.488 43.5061 134.399 43.8217 134.207C44.1373 134.016 44.385 133.73 44.53 133.39C44.697 133.057 44.7486 132.678 44.6768 132.313C44.6051 131.948 44.414 131.616 44.1335 131.371C43.8531 131.127 43.4992 130.982 43.1275 130.96C42.7558 130.938 42.3874 131.04 42.08 131.25Z" fill="white"/>
<path d="M26.4501 146.24C19.4501 146.07 14.4501 121.98 15.1501 92.43C15.8501 62.8801 22.1501 39.07 29.0701 39.24" stroke="#8072D0" stroke-miterlimit="10"/>
<path d="M124.87 28.8601C124.76 30.2897 125.101 31.7177 125.846 32.9431C126.59 34.1684 127.701 35.1292 129.02 35.6901C127.59 35.5823 126.161 35.9257 124.936 36.6719C123.711 37.4181 122.751 38.5296 122.19 39.8501C122.298 38.4196 121.954 36.9914 121.208 35.7662C120.462 34.5411 119.35 33.5807 118.03 33.0201C119.462 33.127 120.891 32.7834 122.117 32.0374C123.344 31.2914 124.306 30.1805 124.87 28.8601Z" fill="#BBBCF5"/>
<path d="M219.56 50.7201C219.452 52.1506 219.796 53.5788 220.542 54.804C221.288 56.0291 222.4 56.9895 223.72 57.5501C222.29 57.4423 220.861 57.7857 219.636 58.5319C218.411 59.2781 217.451 60.3896 216.89 61.7101C216.997 60.2785 216.653 58.8493 215.907 57.6227C215.161 56.3962 214.05 55.4337 212.73 54.8701C214.16 54.9802 215.588 54.6389 216.813 53.8944C218.038 53.1499 218.999 52.0396 219.56 50.7201Z" fill="#BBBCF5"/>
<path d="M93.51 89.7201C93.4 91.1496 93.7412 92.5777 94.4857 93.803C95.2303 95.0284 96.3405 95.9892 97.6601 96.5501C96.2296 96.4423 94.8013 96.7857 93.5762 97.5319C92.351 98.2781 91.3906 99.3896 90.83 100.71C90.9378 99.2796 90.5945 97.8514 89.8483 96.6262C89.1021 95.401 87.9905 94.4406 86.67 93.8801C88.1019 93.9885 89.5318 93.6455 90.7586 92.8994C91.9855 92.1532 92.9477 91.0414 93.51 89.7201Z" fill="#BBBCF5"/>
</svg>
