<svg width="372" height="411" viewBox="0 0 372 411" fill="none" xmlns="http://www.w3.org/2000/svg">
<path d="M227.36 97.85C225.96 80.44 216.14 64.36 202.73 53.17C189.32 41.98 172.58 35.35 155.49 31.72C145.54 29.62 135.31 28.49 125.2 29.54C93.28 32.83 66.2 58.71 56.95 89.44C47.7 120.17 54.68 154.32 71.1 181.89C79.48 195.96 90.4 209.08 94 225.05C96.74 237.22 94.93 249.91 95.62 262.36C97.5 296.25 119.03 327.76 148.75 344.15C178.47 360.54 215.29 362.26 247.38 351.21C264.01 345.48 279.7 336.34 291.56 323.35C303.907 309.571 311.908 292.451 314.56 274.14C316.61 260.53 315.64 245.85 308.25 234.24C293.25 210.66 258.25 207.92 240.63 186.24C219.24 159.97 229.8 128.17 227.36 97.85Z" fill="#3F408B"/>
<path d="M78.89 221.92L4.03001 221.59C2.75001 219.52 5.1 216.05 7.46 215.46C9.82 214.87 12.26 215.78 14.53 216.63C16.8 217.48 19.3 218.3 21.61 217.54C24.56 216.54 26.12 213.45 27.44 210.64C29.23 206.82 31.31 202.88 34.89 200.64C38.47 198.4 43.89 198.64 46.13 202.28C47.41 204.38 47.29 207 47.56 209.45C47.83 211.9 48.82 214.65 51.14 215.45C53.97 216.45 56.7 214.05 59.41 212.78C65.68 209.81 77.24 215.16 78.89 221.92Z" fill="#3F408B"/>
<path d="M256.22 38.95L197.6 38.03C196.93 36.03 199.12 33.66 201.21 33.16C203.3 32.66 205.63 32.8 207.41 31.6C211.11 29.1 210.17 22.48 214.11 20.39C216.38 19.19 219.25 20.21 221.17 21.91C223.09 23.61 224.38 25.91 226.06 27.82C227.74 29.73 230.06 31.41 232.65 31.16C235.02 30.93 237.11 29.07 239.49 29.27C242.37 29.51 244.22 32.62 247 33.42C248.78 33.93 250.7 33.42 252.51 33.8C254.32 34.18 257.32 37.47 256.22 38.95Z" fill="#3F408B"/>
<path d="M250.9 63.3601L255.6 53.9301L254.91 64.7301L263.95 69.3101L255.29 68.3101L255.25 80.1501L250.8 69.4901L241.34 75.1901L248.38 66.4401L242.25 60.4101L250.9 63.3601Z" fill="white"/>
<path d="M164.16 295.82L168.86 286.38L168.17 297.19L177.21 301.76L168.55 300.77L168.51 312.6L164.06 301.94L154.59 307.65L161.63 298.89L155.51 292.86L164.16 295.82Z" fill="#8072D0"/>
<path d="M91.3399 169.36L101.54 166.72L92.9399 173.28L95.4199 183.11L90.4899 175.92L81.5299 183.65L86.6499 173.3L76.1399 169.9L87.3599 169.47L87.8999 160.89L91.3399 169.36Z" fill="white"/>
<path d="M41.28 166.14C48.28 166.41 55.28 129.55 57.07 83.81C58.86 38.07 54.61 0.81 47.65 0.5" stroke="#8072D0" stroke-miterlimit="10"/>
<path d="M123.02 217.19C123.017 217.21 123.017 217.23 123.02 217.25L123.78 242.57C123.55 234.95 135.88 227.64 156.15 221.92L155.39 196.53C135.12 202.26 122.79 209.56 123.02 217.19Z" fill="#DED9FF"/>
<path d="M216.68 89.7201C213.09 102.08 195.11 126.64 186.39 138.03L185.58 139.03C183.22 142.11 181.7 144.03 181.64 144.03C181.36 144.25 167.11 122.82 167.11 122.82L167.75 122.23L176.75 113.99L210.2 83.5101L216.68 89.7201Z" fill="#F2C7C4"/>
<path d="M184.51 138.01C181.485 134.959 179.208 131.248 177.858 127.169C176.508 123.09 176.122 118.754 176.73 114.5C176.73 114.34 176.78 114.18 176.81 114.01L167.81 122.25L167.17 122.84C167.17 122.84 181.42 144.27 181.7 144.05C181.76 144 183.28 142.12 185.64 139.05C185.23 138.72 184.87 138.37 184.51 138.01Z" fill="#8072D0"/>
<path d="M207.57 67.9001C206.34 80.7001 205.87 89.3301 216.72 89.6901L221.45 73.4301L207.57 67.9001Z" fill="#F2C7C4"/>
<path d="M205.91 52.4301L214.8 53.8101C215.199 53.8743 215.578 54.0283 215.909 54.2604C216.24 54.4926 216.514 54.7968 216.71 55.1501L221.71 67.8101C222.277 69.2385 222.323 70.8211 221.84 72.2801L216.15 89.5601C215.62 87.3001 210.54 86.7201 208.98 80.9701C206.83 74.9701 212.15 63.1201 212.15 63.1201L211.73 58.1201L205.01 55.5401C204.647 55.3934 204.348 55.1234 204.165 54.7776C203.982 54.4318 203.927 54.0325 204.01 53.6501C204.119 53.2471 204.373 52.8989 204.725 52.6733C205.076 52.4478 205.498 52.3611 205.91 52.4301Z" fill="#F2C7C4"/>
<path d="M211.37 59.6101L199 54.5201C198.11 54.1483 197.155 53.957 196.19 53.9571C195.225 53.9573 194.27 54.1489 193.38 54.521C192.489 54.8931 191.682 55.4382 191.004 56.1246C190.326 56.8111 189.791 57.6254 189.43 58.5201L187.92 62.2001C187.221 63.8888 187.178 65.7776 187.8 67.4962C188.422 69.2148 189.663 70.6392 191.28 71.4901L186.19 69.3001C185.298 68.9338 184.488 68.3955 183.804 67.7158C183.12 67.036 182.577 66.2283 182.206 65.3387C181.834 64.4491 181.642 63.495 181.639 62.531C181.636 61.5669 181.824 60.6118 182.19 59.7201L183.71 56.0401C184.325 54.5479 185.415 53.2997 186.81 52.4882C188.205 51.6767 189.829 51.347 191.43 51.5501C192.065 51.6421 192.686 51.8099 193.28 52.0501L210.8 59.3601C210.995 59.433 211.185 59.5165 211.37 59.6101Z" fill="#8072D0"/>
<path d="M215.22 67.5001L212.22 83.5001C212.06 84.4105 211.613 85.2456 210.943 85.8828C210.274 86.52 209.417 86.9256 208.5 87.0401C208.387 87.0503 208.273 87.0503 208.16 87.0401C207.238 87.05 206.339 86.7556 205.601 86.2023C204.863 85.6491 204.329 84.868 204.08 83.9801L201.79 75.8201L191.36 71.5301C189.743 70.6792 188.502 69.2548 187.88 67.5362C187.259 65.8176 187.301 63.9287 188 62.2401L189.51 58.5601C189.871 57.6653 190.406 56.8511 191.084 56.1646C191.762 55.4781 192.569 54.933 193.46 54.561C194.35 54.1889 195.305 53.9972 196.27 53.9971C197.235 53.9969 198.19 54.1883 199.08 54.5601L211.45 59.6501C212.837 60.3811 213.953 61.5389 214.632 62.9524C215.311 64.366 215.517 65.9603 215.22 67.5001Z" fill="white"/>
<path d="M212.44 61.4602C208.36 60.3702 206.09 60.3502 205.44 60.5902C204.97 60.7602 201.72 62.9902 200.09 64.1202C199.822 64.3036 199.623 64.5723 199.527 64.8828C199.431 65.1933 199.443 65.5272 199.56 65.8302C199.693 66.1699 199.949 66.447 200.277 66.6064C200.605 66.7658 200.981 66.7957 201.33 66.6902L205.63 65.1102L211.87 66.1102L212.44 61.4602Z" fill="#F2C7C4"/>
<path d="M212.09 65.8502C207.09 65.2302 203.09 66.9502 202.65 67.4002C202.21 67.8502 201.01 69.8702 200.15 71.2302C199.961 71.5321 199.899 71.8961 199.975 72.2439C200.052 72.5917 200.262 72.8955 200.56 73.0902C200.826 73.2625 201.144 73.3359 201.458 73.2975C201.773 73.2591 202.064 73.1114 202.28 72.8802L204.03 71.0302C204.158 70.8974 204.315 70.7958 204.488 70.7334C204.662 70.671 204.847 70.6493 205.03 70.6702L209.22 71.2102L212.09 65.8502Z" fill="#F2C7C4"/>
<path d="M208.48 70.7802C205.58 71.4902 203.2 72.7002 202.87 73.2202C202.65 73.5602 201.63 75.9002 201 77.3902C200.861 77.7169 200.856 78.0849 200.985 78.4156C201.114 78.7463 201.367 79.0135 201.69 79.1602C201.98 79.2866 202.305 79.3088 202.609 79.2232C202.913 79.1375 203.179 78.9492 203.36 78.6902L204.8 76.5802C204.913 76.4207 205.063 76.291 205.237 76.2022C205.412 76.1134 205.605 76.0681 205.8 76.0702L210.01 75.9602L208.48 70.7802Z" fill="#F2C7C4"/>
<path d="M213.56 61.5202C214.117 61.4408 214.685 61.4886 215.22 61.6602C215.781 61.8446 216.313 62.1072 216.8 62.4402C217.766 63.0715 218.635 63.8395 219.38 64.7202C219.51 64.8802 219.25 65.1002 219.11 64.9502C218.369 64.1428 217.475 63.4902 216.48 63.0302C216 62.8202 215.48 62.6402 215.01 62.4502C214.498 62.2626 213.997 62.0456 213.51 61.8002C213.473 61.7936 213.44 61.7724 213.419 61.7415C213.397 61.7106 213.389 61.6723 213.395 61.6352C213.402 61.5981 213.423 61.5651 213.454 61.5435C213.485 61.5219 213.523 61.5136 213.56 61.5202Z" fill="#8072D0"/>
<path d="M212.44 61.4601C216.8 62.4601 219.39 63.9801 220.44 66.9401C221.49 69.9001 216.27 84.7201 216.27 84.7201L213.36 86.9201C211.569 85.7122 210.217 83.9564 209.506 81.9158C208.796 79.8751 208.766 77.6593 209.42 75.6001L207.68 69.7201L212.44 61.4601Z" fill="#F2C7C4"/>
<path d="M175.81 114.94L170.07 132.04L166.91 122.45L157.77 94.7201C163.402 100.137 168.667 105.923 173.53 112.04C174.97 113.83 175.81 114.94 175.81 114.94Z" fill="#BBBCF5"/>
<path d="M175.81 114.94L170.07 132.04L166.91 122.45L173.53 112.07C174.97 113.83 175.81 114.94 175.81 114.94Z" fill="#8072D0"/>
<path d="M239.2 367.72L268.68 360.84C267.928 358.514 266.982 356.256 265.85 354.09L235.48 357.56C237.51 366.42 239.2 367.72 239.2 367.72Z" fill="#3F408B"/>
<path d="M265.88 354.09C265.37 355.83 250.45 362.77 239.1 359.16C237.847 358.767 236.643 358.233 235.51 357.57C235.15 355.96 234.73 353.81 234.21 351.19C233.73 348.74 233.21 345.87 232.52 342.61C231.82 339.06 231.01 335.06 230.06 330.61C228.45 323.02 223.9 314.8 221.45 304.96L237.95 292.96C239.76 310.03 241.16 315.96 244.38 323.54C247.77 331.54 257.1 341.54 262.89 349.39C264.053 350.844 265.056 352.42 265.88 354.09Z" fill="#8072D0"/>
<path d="M244.37 323.52C239.241 325.081 234.406 327.48 230.06 330.62C228.45 323.03 223.9 314.8 221.45 304.97L237.95 292.97C239.76 310.02 241.16 315.97 244.37 323.52Z" fill="#F2C7C4"/>
<path d="M234.22 351.32C233.72 348.8 233.15 345.84 232.48 342.49C234.68 344.12 236.43 348.47 234.22 351.32Z" fill="#3F408B"/>
<path d="M265.88 354.09C264.28 358.16 249.67 364.77 239.1 359.16C246.17 349.72 260.48 345.08 265.88 354.09Z" fill="#3F408B"/>
<path d="M250.62 320.1C250.271 319.708 249.803 319.442 249.288 319.343C248.773 319.243 248.24 319.316 247.77 319.55C245.47 320.55 243.97 323.69 243.23 325.94C242.501 328.097 242.276 330.392 242.57 332.65C241.623 331.378 240.416 330.321 239.03 329.55C236.898 328.312 234.41 327.833 231.97 328.19C229.76 328.59 227.26 330.69 227.77 333.19C228.28 335.69 231.35 336.41 233.48 336.73C236.191 337.159 238.967 336.898 241.55 335.97C239.97 336.888 238.48 337.953 237.1 339.15C236.88 339.35 237.1 339.64 237.34 339.48C238.982 338.307 240.726 337.282 242.55 336.42C243.43 335.991 244.331 335.607 245.25 335.27C246.173 335.034 247.075 334.727 247.95 334.35C248.35 334.14 248.33 333.45 247.87 333.46C247.044 333.539 246.239 333.762 245.49 334.12C248.81 331.337 250.895 327.354 251.29 323.04C251.415 322.012 251.178 320.972 250.62 320.1ZM235.62 335.83C233.56 335.83 230.83 335.51 229.39 333.98C229.025 333.593 228.807 333.09 228.772 332.559C228.737 332.028 228.889 331.502 229.2 331.07C229.535 330.565 229.978 330.141 230.497 329.828C231.016 329.515 231.597 329.321 232.2 329.26C234.328 329.026 236.476 329.467 238.34 330.52C240.09 331.474 241.575 332.849 242.66 334.52C240.399 335.333 238.022 335.776 235.62 335.83ZM250.23 323.62C249.95 325.716 249.231 327.73 248.12 329.53C246.985 331.329 245.551 332.922 243.88 334.24C243.88 334.24 243.88 334.17 243.88 334.13C243.37 331.963 243.37 329.707 243.88 327.54C244.362 325.302 245.393 323.22 246.88 321.48C247.66 320.64 249.02 319.97 249.78 320.9C250.275 321.715 250.436 322.689 250.23 323.62Z" fill="white"/>
<path d="M248.3 337.09C244.424 338.347 240.977 340.664 238.35 343.78C238.14 344.02 238.48 344.37 238.71 344.13C241.379 341.312 244.7 339.193 248.38 337.96C248.447 337.944 248.51 337.914 248.565 337.873C248.62 337.831 248.666 337.779 248.7 337.719C248.734 337.658 248.755 337.592 248.762 337.523C248.769 337.455 248.761 337.386 248.74 337.32C248.71 337.232 248.648 337.16 248.566 337.117C248.484 337.074 248.389 337.064 248.3 337.09Z" fill="white"/>
<path d="M251.11 341.08C247.133 341.9 243.358 343.497 240 345.78C239.61 346.04 239.82 346.69 240.25 346.44C241.954 345.433 243.729 344.551 245.56 343.8C247.398 343.088 249.282 342.504 251.2 342.05C251.8 341.89 251.68 340.97 251.11 341.08Z" fill="white"/>
<path d="M253.44 344.72L253.34 344.63C253.274 344.588 253.198 344.566 253.12 344.566C253.042 344.566 252.966 344.588 252.9 344.63C251.9 345 250.96 345.26 250 345.63C249.04 346 248.09 346.45 247.16 346.93C245.314 347.87 243.557 348.974 241.91 350.23C241.58 350.48 241.91 351.04 242.22 350.81C243.896 349.667 245.647 348.639 247.46 347.73C248.33 347.3 249.21 346.91 250.1 346.55C251.07 346.12 252.074 345.769 253.1 345.5C253.182 345.477 253.257 345.435 253.32 345.378C253.382 345.321 253.43 345.249 253.46 345.17L253.51 345.06C253.538 345.004 253.547 344.939 253.534 344.878C253.521 344.816 253.488 344.76 253.44 344.72Z" fill="white"/>
<path d="M280.04 292.14C280.09 287.34 271.32 263.71 271.32 263.71L291.49 252.86L298.68 299.5L280.04 292.14Z" fill="#F2C7C4"/>
<path d="M273.74 321.31L272.96 328.48L339.39 326.58L337.82 320.88L273.74 321.31Z" fill="#3F408B"/>
<path d="M278.62 290.48C278.09 298.48 274.82 318.48 273.74 321.32C273.74 321.32 293.79 322.21 312.06 322.19C322.67 322.19 331.72 322.04 336.86 321.06C330.807 319.17 324.888 316.878 319.14 314.2C303.73 307.39 298.06 302.41 299.31 289.89L278.63 290.48H278.62Z" fill="#8072D0"/>
<path d="M287.26 292.62C288.48 294.863 290.257 296.754 292.42 298.11C293.427 298.806 294.498 299.402 295.62 299.89C296.54 300.338 297.51 300.674 298.51 300.89C297.97 301.14 297.43 301.39 296.9 301.67C296.05 302.11 295.21 302.59 294.4 303.11C293.97 303.39 293.24 303.99 293.81 304.53C294.38 305.07 294.87 304.53 295.3 304.25C296.902 303.189 298.596 302.272 300.36 301.51C300.525 301.459 300.664 301.346 300.748 301.195C300.832 301.045 300.854 300.867 300.81 300.7C300.796 300.657 300.776 300.617 300.75 300.58V300.51C303.07 299.615 305.257 298.407 307.25 296.92C308.217 296.191 309.13 295.392 309.98 294.53C310.872 293.771 311.493 292.743 311.75 291.6C312.02 289.5 309.88 288.22 308 288.6C306.866 288.913 305.843 289.541 305.05 290.41C303.245 292.189 301.694 294.208 300.44 296.41C300.113 296.976 299.819 297.56 299.56 298.16C299.49 298.33 299.44 298.51 299.38 298.68C298.334 296.426 297.05 294.291 295.55 292.31C294.756 291.222 293.88 290.195 292.93 289.24C292.105 288.358 290.975 287.822 289.77 287.74C289.22 287.722 288.676 287.864 288.205 288.15C287.734 288.436 287.357 288.853 287.12 289.35C286.912 289.874 286.816 290.437 286.84 291C286.864 291.564 287.007 292.116 287.26 292.62ZM300.04 299.24C300.21 298.96 300.38 298.69 300.53 298.4C300.82 297.86 301.1 297.3 301.41 296.76C302.008 295.716 302.677 294.714 303.41 293.76C304.028 292.94 304.696 292.159 305.41 291.42C306.11 290.625 307.001 290.022 308 289.67C308.405 289.541 308.837 289.524 309.251 289.62C309.665 289.717 310.045 289.925 310.35 290.22C311.1 291.07 310.46 292.22 309.85 292.9C308.428 294.408 306.802 295.711 305.02 296.77C303.448 297.761 301.78 298.588 300.04 299.24ZM288.26 289.31C289.02 288.31 290.44 288.66 291.32 289.24C292.239 289.919 293.051 290.731 293.73 291.65C294.507 292.581 295.235 293.552 295.91 294.56C296.959 296.138 297.895 297.789 298.71 299.5C297.82 299.23 296.9 299.05 296.04 298.7C294.964 298.266 293.935 297.723 292.97 297.08C291.098 295.908 289.52 294.32 288.36 292.44C288.037 291.986 287.855 291.447 287.838 290.89C287.82 290.333 287.967 289.784 288.26 289.31Z" fill="white"/>
<path d="M296.19 307.58C296.48 307.368 296.78 307.172 297.09 306.99L298.84 305.86C300.02 305.09 301.22 304.36 302.42 303.61C302.98 303.26 303.48 304.11 302.95 304.48C301.81 305.28 300.68 306.09 299.52 306.86L297.85 307.99C297.34 308.33 296.64 308.99 295.98 308.79C295.898 308.771 295.824 308.725 295.77 308.66C295.716 308.595 295.684 308.515 295.68 308.43C295.684 308.256 295.733 308.087 295.822 307.937C295.912 307.788 296.039 307.665 296.19 307.58Z" fill="white"/>
<path d="M298.15 313.07C299.3 312.07 300.47 311.07 301.65 310.07C302.908 308.928 304.245 307.875 305.65 306.92C305.99 306.7 306.32 307.16 306.08 307.45C305.062 308.59 303.973 309.666 302.82 310.67C301.73 311.67 300.61 312.67 299.47 313.67C299.03 314.05 298.33 314.89 297.67 314.57C297.01 314.25 297.82 313.36 298.15 313.07Z" fill="white"/>
<path d="M305.16 315.3L307.53 312.81C308.42 311.88 309.32 310.97 310.23 310.06C310.306 309.981 310.41 309.934 310.519 309.932C310.629 309.929 310.736 309.97 310.815 310.045C310.895 310.121 310.941 310.225 310.944 310.335C310.947 310.444 310.906 310.551 310.83 310.63C309.41 312.42 307.94 314.16 306.48 315.9C306.13 316.33 305.71 316.99 305.07 316.78C304.95 316.737 304.847 316.656 304.777 316.55C304.707 316.444 304.673 316.317 304.68 316.19C304.695 316.017 304.746 315.849 304.828 315.696C304.911 315.543 305.024 315.408 305.16 315.3Z" fill="white"/>
<path d="M312.06 322.2C321.92 324.05 332.79 323.2 337.82 320.89C331.455 319.069 325.215 316.834 319.14 314.2C316.814 315.757 314.819 317.759 313.27 320.09C312.83 320.77 312.43 321.48 312.06 322.2Z" fill="#3F408B"/>
<path d="M285.84 311.18C285.04 311.537 284.158 311.669 283.288 311.559C282.419 311.45 281.597 311.104 280.91 310.56C277.42 307.75 279.24 301.65 283.97 302.37C288.22 303.01 290.29 309.09 285.84 311.18Z" fill="#3F408B"/>
<path d="M179.43 204.72C179.43 204.72 248.81 219.96 250.64 222.47C252.47 224.98 272.44 283.42 272.44 283.42C292.05 289.42 303.69 278.66 303.69 278.66C303.69 278.66 288.16 220.88 282.37 203.54C282.378 203.514 282.378 203.486 282.37 203.46C282.075 202.565 281.686 201.703 281.21 200.89C279.98 198.796 278.424 196.913 276.6 195.31C275.75 194.52 274.81 193.77 273.82 193.02C258.63 181.59 227.63 173.31 202.82 164.23L179.43 204.72Z" fill="#8072D0"/>
<path d="M190.31 194.89C208.74 199.02 227.22 203.06 245.36 208.33C249.18 209.44 253.03 210.72 255.89 213.61C258.75 216.5 260.24 220.55 261.89 224.23C265.44 232.41 268.78 240.72 271.89 249.08C275 257.44 277.63 265.79 280.14 274.27L281.14 274.36C283.079 274.46 285.021 274.46 286.96 274.36C290.916 274.137 294.841 273.531 298.68 272.55C298.754 272.534 298.83 272.532 298.904 272.545C298.978 272.558 299.049 272.585 299.113 272.626C299.176 272.666 299.231 272.719 299.275 272.78C299.318 272.842 299.349 272.912 299.365 272.985C299.381 273.059 299.383 273.135 299.37 273.209C299.357 273.283 299.33 273.354 299.289 273.418C299.249 273.481 299.196 273.536 299.135 273.58C299.073 273.623 299.004 273.654 298.93 273.67C295.11 274.666 291.213 275.335 287.28 275.67C285.34 275.83 283.4 275.94 281.45 275.98H280.56C280.75 276.63 280.95 277.28 281.14 277.98C281.26 278.39 280.61 278.53 280.48 278.12C280.27 277.42 280.03 276.73 279.81 276.03H278.33C277.327 276.12 276.315 276.06 275.33 275.85C274.47 275.54 274.33 274.07 275.4 273.93C276.409 273.915 277.417 274.022 278.4 274.25L279.25 274.32C276.97 267.32 274.43 260.32 271.88 253.37C268.83 245.1 265.66 236.82 261.98 228.8C260.26 225.07 258.73 221.11 256.54 217.62C254.21 213.89 250.79 211.81 246.68 210.43C242.57 209.05 238.09 208.31 233.82 207.26C229.34 206.15 224.82 205.05 220.39 203.87C210.27 201.19 200.1 198.66 189.93 196.19C189.17 195.89 189.54 194.72 190.31 194.89Z" fill="white"/>
<path d="M242.21 312.46C238.32 317.35 220.21 322.46 220.21 322.46C220.21 322.46 200.38 269.76 199.27 267.15C198.16 264.54 159.71 218.63 133.8 181.53L170.64 150.53C170.64 150.53 214.91 215.8 228.5 247.14C232.33 255.92 242.21 312.46 242.21 312.46Z" fill="#8072D0"/>
<path d="M265.57 206.78C271.289 206.465 276.935 205.344 282.34 203.45C282.045 202.555 281.656 201.693 281.18 200.88C279.95 198.786 278.394 196.903 276.57 195.3C273.16 199.365 269.486 203.2 265.57 206.78Z" fill="white"/>
<path d="M206.77 257C208.354 258.407 210.273 259.383 212.342 259.836C214.412 260.289 216.563 260.203 218.589 259.587C220.616 258.971 222.451 257.845 223.918 256.317C225.386 254.789 226.436 252.91 226.97 250.86C220.29 252.65 213.45 255.21 206.77 257Z" fill="white"/>
<path d="M180.75 155.36C180.75 155.36 196.26 161.7 218.83 170.53L176.42 216.65C162.61 216.79 133.83 181.52 133.83 181.52L180.75 155.36Z" fill="#8072D0"/>
<path d="M183.51 161.8C185.09 161.88 186.69 162.22 188.26 162.45L192.82 163.1L202.14 164.44C203.14 164.58 203.14 166.17 202.08 166.03L192.58 164.72L187.83 164.07C186.3 163.86 184.73 163.75 183.23 163.4C182.31 163.21 182.58 161.72 183.51 161.8Z" fill="white"/>
<path d="M158.18 179.42C160.327 183.828 161.509 188.642 161.649 193.543C161.788 198.443 160.882 203.317 158.99 207.84C171.11 219.84 183.26 231.96 193.26 245.84C198.249 252.704 202.53 260.055 206.04 267.78C209.44 275.38 211.85 283.35 214.5 291.22C216.603 297.949 219.307 304.476 222.58 310.72L223.25 310.55C224.92 310.1 226.58 309.55 228.25 309.04C231.478 307.942 234.628 306.629 237.68 305.11C239.02 304.44 240.12 306.49 238.78 307.11C235.634 308.695 232.387 310.071 229.06 311.23C227.42 311.81 225.753 312.323 224.06 312.77L223.84 312.84C224.58 314.07 225.35 315.28 226.19 316.47C227.03 317.66 225.12 318.53 224.34 317.47C223.4 316.16 222.53 314.8 221.71 313.47C220.77 313.719 219.815 313.906 218.85 314.03C218.7 314.063 218.544 314.067 218.392 314.04C218.241 314.014 218.096 313.958 217.966 313.875C217.836 313.792 217.723 313.685 217.635 313.559C217.546 313.433 217.483 313.29 217.45 313.14C217.417 312.99 217.413 312.834 217.44 312.682C217.466 312.531 217.522 312.386 217.605 312.256C217.688 312.126 217.795 312.013 217.921 311.925C218.047 311.836 218.19 311.773 218.34 311.74C219.02 311.54 219.72 311.38 220.41 311.23C213.69 298.99 210.78 285.01 205.52 272.1C199.07 256.25 188.75 242.5 177.52 229.71C171.35 222.66 164.84 215.93 158.29 209.23L158.09 209.65C157.36 211.08 155.28 209.76 155.98 208.35C158.197 203.992 159.428 199.199 159.585 194.311C159.742 189.424 158.822 184.562 156.89 180.07C156.57 179.26 157.77 178.6 158.18 179.42Z" fill="white"/>
<path d="M168.9 170.96C172 173.567 175.103 176.163 178.21 178.75L182.9 182.61L185.24 184.54C186.015 185.296 186.89 185.942 187.84 186.46C188.017 186.55 188.211 186.602 188.409 186.613C188.607 186.623 188.805 186.592 188.99 186.52C189.05 186.52 189.08 186.43 189.12 186.39C189.16 186.35 189.01 186.39 188.95 186.23C188.22 185.54 187.36 184.94 186.58 184.3L181.91 180.38C178.74 177.72 175.65 174.95 172.56 172.21C171.51 171.28 173.01 169.39 174.12 170.28C178.03 173.44 181.93 176.6 185.76 179.86L188.86 182.49C189.822 183.183 190.717 183.967 191.53 184.83C192.68 186.35 191.47 188.32 189.94 188.97C188.01 189.79 186.21 188.56 184.79 187.35C182.88 185.72 181.01 184.04 179.13 182.35C175.27 178.96 171.39 175.61 167.5 172.26C166.56 171.48 167.96 170.17 168.9 170.96Z" fill="white"/>
<path d="M122.26 102.98C122.26 102.98 84.8602 98.4201 62.7102 88.5701L55.4202 114.27L121.51 140.27L122.26 102.98Z" fill="#F2C7C4"/>
<path d="M77.8701 102.35L55.4201 114.27C49.9398 109.491 45.4719 103.663 42.2801 97.1301C41.6501 95.9001 41.0601 94.6701 40.5001 93.4301C37.426 86.4211 35.1127 79.1026 33.6001 71.6001C32.6001 66.8901 32.3201 63.8401 32.3201 63.8401L37.7301 52.8401L40.1301 47.9501L41.2701 49.5901L46.8901 57.7001L54.8901 69.2701L60.4101 77.2701L77.8701 102.35Z" fill="#F2C7C4"/>
<path d="M46.8901 57.7201L41.2701 49.6101C40.0332 50.6298 38.8515 51.7146 37.7301 52.8601L32.3201 63.8601C32.3201 63.8601 32.6301 66.8601 33.6001 71.6201C35.1127 79.1226 37.426 86.4412 40.5001 93.4501C40.7401 91.9201 40.8601 90.3601 41.0701 88.8201C41.4164 85.6668 42.1451 82.5674 43.2401 79.5901C45.1901 74.6501 49.4801 70.0201 54.9201 69.3201L46.8901 57.7201Z" fill="#8072D0"/>
<path d="M94.25 109.72C96.5545 118.183 99.3696 126.498 102.68 134.62C102.85 135.04 103.02 135.47 103.2 135.9C110.08 152.9 121.26 175.39 137.81 195.21C140.13 197.99 142.553 200.703 145.08 203.35L197.2 161.97C196.13 160.83 195.08 159.71 194.06 158.58C182.79 146.09 175.69 134.58 171.28 124.58C166.99 114.77 163.88 106.8 161.69 100.75C160.347 97.0378 157.611 93.9945 154.062 92.2658C150.514 90.537 146.431 90.2588 142.68 91.4901L133.38 94.5801C133.38 94.5801 128.82 95.7601 121.9 98.1201L121.08 98.4001C119.83 98.8301 118.5 99.3101 117.13 99.8101C109.304 102.633 101.662 105.942 94.25 109.72Z" fill="#BBBCF5"/>
<path d="M70.27 126.49L103.22 135.9L111.12 138.29L126.48 142.95L124.45 113.81L124.31 111.67L123.41 98.5801L121.03 98.4001L117.32 98.1301L77.66 92.9901L70.27 126.49Z" fill="#BBBCF5"/>
<path d="M117.32 98.1301C117.201 98.6838 117.121 99.2452 117.08 99.8101C116.89 101.966 117.181 104.138 117.931 106.168C118.682 108.198 119.873 110.036 121.42 111.55C122.314 112.437 123.323 113.201 124.42 113.82C127.423 115.56 130.947 116.174 134.362 115.553C137.776 114.931 140.858 113.114 143.055 110.427C145.252 107.741 146.421 104.36 146.352 100.89C146.283 97.4199 144.982 94.0878 142.68 91.4901L133.38 94.5801C133.38 94.5801 128.82 95.7601 121.9 98.1201L121.08 98.4001L117.32 98.1301Z" fill="#8072D0"/>
<path d="M115.81 87.4501L118.68 93.9201L121.93 101.35L123.54 105.29C124.403 107.375 126.028 109.053 128.085 109.982C130.142 110.911 132.475 111.021 134.61 110.29C136.764 109.557 138.554 108.024 139.611 106.009C140.668 103.993 140.911 101.649 140.29 99.4601L133.41 75.2601L115.81 87.4501Z" fill="#F2C7C4"/>
<path d="M118.05 92.6102L121.3 100.02C129.77 99.2402 132.3 89.4102 131.11 81.3002C127.06 81.7202 119.2 91.3502 118.05 92.6102Z" fill="#8072D0"/>
<path d="M100.059 83.3064L105.17 84.7817C108.174 85.6486 111.311 83.9166 112.178 80.9133L113.809 75.2639C114.675 72.2606 112.944 69.1232 109.94 68.2563L104.829 66.781C101.826 65.9141 98.6881 67.6461 97.8212 70.6494L96.1906 76.2988C95.3238 79.3021 97.0557 82.4395 100.059 83.3064Z" fill="white"/>
<path d="M109.156 71.705L108.411 71.4152C106.614 70.7169 104.592 71.6073 103.893 73.4038L102.596 76.7406C101.898 78.5372 102.788 80.5596 104.585 81.2579L105.331 81.5477C107.127 82.246 109.15 81.3557 109.848 79.5591L111.145 76.2223C111.843 74.4258 110.953 72.4033 109.156 71.705Z" fill="white"/>
<path d="M106.42 84.6301C105.778 84.6282 105.141 84.5096 104.54 84.2801L103.33 83.8101C102.692 83.5663 102.107 83.199 101.611 82.7291C101.115 82.2593 100.716 81.6962 100.437 81.0721C100.158 80.448 100.006 79.775 99.9872 79.0918C99.9689 78.4085 100.085 77.7283 100.33 77.0901L102.44 71.6601C102.814 70.6832 103.476 69.8432 104.339 69.2519C105.202 68.6606 106.224 68.3461 107.27 68.3501C107.913 68.3512 108.55 68.4698 109.15 68.7001L110.36 69.1701C110.999 69.414 111.583 69.7813 112.079 70.2511C112.576 70.721 112.975 71.284 113.253 71.9082C113.532 72.5323 113.685 73.2053 113.703 73.8885C113.722 74.5718 113.605 75.252 113.36 75.8901L111.24 81.3201C110.868 82.2979 110.206 83.1387 109.343 83.7301C108.48 84.3216 107.456 84.6356 106.41 84.6301H106.42Z" fill="white"/>
<path d="M107.32 68.8501C107.902 68.8518 108.478 68.9603 109.02 69.1701L110.23 69.6401C111.389 70.0912 112.321 70.984 112.822 72.1223C113.323 73.2606 113.351 74.5511 112.9 75.7101L110.79 81.1401C110.453 82.0249 109.854 82.786 109.073 83.322C108.292 83.8579 107.367 84.1433 106.42 84.1401C105.839 84.1384 105.262 84.0299 104.72 83.8201L103.51 83.3501C102.353 82.8969 101.422 82.0038 100.922 80.8662C100.422 79.7287 100.392 78.4393 100.84 77.2801L102.95 71.8501C103.287 70.9653 103.886 70.2042 104.667 69.6682C105.448 69.1323 106.373 68.8469 107.32 68.8501ZM107.32 67.8501C106.174 67.8523 105.055 68.1998 104.11 68.8474C103.165 69.4949 102.436 70.4124 102.02 71.4801L99.9101 76.9101C99.6387 77.606 99.5073 78.3486 99.5233 79.0954C99.5393 79.8422 99.7025 80.5785 100.003 81.2622C100.304 81.9458 100.737 82.5634 101.277 83.0796C101.817 83.5957 102.454 84.0003 103.15 84.2701L104.36 84.7401C105.017 84.9955 105.715 85.1277 106.42 85.1301C107.567 85.1307 108.687 84.7842 109.633 84.1363C110.579 83.4884 111.306 82.5694 111.72 81.5001L113.83 76.0701C114.101 75.3742 114.233 74.6316 114.217 73.8848C114.201 73.138 114.038 72.4017 113.737 71.718C113.436 71.0344 113.003 70.4168 112.463 69.9007C111.923 69.3845 111.287 68.9799 110.59 68.7101L109.38 68.2401C108.723 67.9847 108.025 67.8525 107.32 67.8501Z" fill="#8072D0"/>
<path d="M103.07 80.9801C103.66 85.6901 106.07 90.3301 110.07 92.8901C115.59 96.4401 123.07 95.3101 128.72 91.9601C131.947 90.0212 134.684 87.3661 136.72 84.2001C141.18 77.4101 142.18 68.6101 136.83 61.6501C133.18 56.8901 124.96 53.1901 118.09 53.7701C115.469 53.9096 112.968 54.9155 110.98 56.6301C104.86 62.1801 102.07 73.0201 103.07 80.9801Z" fill="#F2C7C4"/>
<path d="M109.29 71.31C109.094 71.7073 109.056 72.1637 109.182 72.5881C109.308 73.0125 109.589 73.3738 109.97 73.6C110.173 73.6625 110.387 73.6835 110.599 73.6617C110.811 73.6399 111.016 73.5758 111.203 73.4732C111.389 73.3706 111.553 73.2316 111.685 73.0645C111.817 72.8973 111.914 72.7054 111.97 72.5C112.165 72.1028 112.204 71.6464 112.078 71.222C111.952 70.7976 111.671 70.4362 111.29 70.21C111.086 70.1461 110.872 70.1241 110.66 70.1452C110.448 70.1664 110.242 70.2303 110.055 70.333C109.868 70.4358 109.704 70.5754 109.573 70.7433C109.441 70.9112 109.345 71.104 109.29 71.31Z" fill="#8072D0"/>
<path d="M120.87 74.9201C120.675 75.3174 120.636 75.7737 120.762 76.1982C120.888 76.6226 121.169 76.984 121.55 77.2102C121.753 77.2741 121.968 77.2961 122.18 77.275C122.392 77.2538 122.598 77.19 122.785 77.0872C122.972 76.9844 123.136 76.8448 123.267 76.6769C123.399 76.509 123.495 76.3162 123.55 76.1101C123.745 75.7129 123.784 75.2565 123.658 74.8321C123.532 74.4077 123.251 74.0464 122.87 73.8202C122.667 73.7563 122.452 73.7342 122.24 73.7553C122.028 73.7765 121.822 73.8403 121.635 73.9431C121.448 74.0459 121.284 74.1855 121.153 74.3534C121.021 74.5213 120.925 74.7141 120.87 74.9201Z" fill="#8072D0"/>
<path d="M110.6 77.4501C112 75.3301 113.5 73.2901 115.02 71.2601C115.17 71.0601 115.49 71.2601 115.36 71.4601C114.25 73.2101 113.14 74.9301 111.96 76.6401C111.285 77.4299 110.762 78.3388 110.42 79.3201C110.358 79.7171 110.394 80.1231 110.525 80.503C110.656 80.8828 110.877 81.2251 111.17 81.5001C111.204 81.5362 111.226 81.5813 111.234 81.6299C111.242 81.6785 111.235 81.7284 111.215 81.7732C111.194 81.8181 111.161 81.8559 111.12 81.8821C111.078 81.9082 111.029 81.9214 110.98 81.9201C110.603 81.8558 110.26 81.6636 110.009 81.3757C109.757 81.0879 109.613 80.7221 109.6 80.3401C109.608 79.2932 109.959 78.2779 110.6 77.4501Z" fill="#8072D0"/>
<path d="M133.31 84.8201L138.31 80.2101L137.81 79.4101C137.18 78.2701 136.47 77.1201 135.69 75.9801C133.975 78.5977 133.141 81.6951 133.31 84.8201Z" fill="#8072D0"/>
<path d="M110.97 56.6301C117.81 47.7801 136.46 47.3301 143.67 55.1001C150.88 62.8701 149.57 73.9701 145.06 79.6201L110.97 56.6301Z" fill="#8072D0"/>
<path d="M142.68 85.72C147.42 86.61 150.68 81.57 146.27 74.8C143.18 70.02 132.02 56.8 113.56 54.91C103.72 53.91 102.04 62.11 105.63 64.48L107.63 60.77C118.48 62.83 131.38 71.14 137.78 79.77L142.68 85.72Z" fill="#8072D0"/>
<path d="M135.91 86.9001C136.826 86.0165 137.962 85.3949 139.2 85.1002C139.76 84.9684 140.334 84.9013 140.91 84.9001C141.489 84.9299 142.067 84.99 142.64 85.0802C143.02 85.0802 143.03 85.7502 142.64 85.7502C142.387 85.7532 142.135 85.7868 141.89 85.8502C141.64 85.9202 141.39 86.0202 141.15 86.1102L140.4 86.3902L140.04 86.5502C139.907 86.5968 139.782 86.6643 139.67 86.7502L139.75 86.7001L139.63 86.7702L139.33 86.9501L139.14 87.0502C138.898 87.1801 138.67 87.3342 138.46 87.5101C138.019 87.8298 137.601 88.1807 137.21 88.5602C136.983 88.7281 136.7 88.8032 136.42 88.7702C136.218 88.7378 136.029 88.6476 135.877 88.5104C135.725 88.3733 135.616 88.1951 135.564 87.9973C135.511 87.7995 135.516 87.5907 135.579 87.396C135.643 87.2013 135.761 87.0291 135.92 86.9001H135.91Z" fill="#8072D0"/>
<path d="M108.62 60.5401C105.19 63.4601 115.21 65.7901 115.28 62.7901C115.34 60.5401 110.06 59.3201 108.62 60.5401Z" fill="#8072D0"/>
<path d="M130.84 70.06C131.43 68.12 126.89 66.22 125.48 66.51C121.52 67.32 129.68 73.8 130.84 70.06Z" fill="#8072D0"/>
<path d="M114.98 54.4401C117.172 54.647 119.347 55.0045 121.49 55.5101C123.668 56.0734 125.798 56.8091 127.86 57.7101C129.926 58.577 131.916 59.6139 133.81 60.8101C134.72 61.4001 135.59 62.0301 136.44 62.6901C137.431 63.3276 138.318 64.1134 139.07 65.0201C139.56 65.7501 138.9 67.0801 137.92 66.5801C137.016 65.9946 136.168 65.325 135.39 64.5801C134.54 63.9101 133.66 63.2801 132.78 62.6701C131.009 61.4206 129.159 60.2882 127.24 59.2801C125.303 58.2973 123.298 57.4552 121.24 56.7601C119.167 56.0049 117.037 55.4163 114.87 55.0001C114.807 54.9753 114.754 54.9291 114.722 54.8696C114.689 54.81 114.678 54.7408 114.691 54.6742C114.704 54.6075 114.74 54.5475 114.793 54.5048C114.846 54.462 114.912 54.4391 114.98 54.4401Z" fill="#1E1840"/>
<path d="M121.48 82.4301C121.28 81.7501 115.28 82.0401 114.7 82.8201C114.33 83.3201 115.7 85.72 118.29 85.53C120.41 85.38 121.68 83.2201 121.48 82.4301Z" fill="#BBBCF5"/>
<path d="M127.68 83.3601L102.68 75.7201C100.273 74.8984 98.2898 73.1561 97.1652 70.8749C96.0405 68.5937 95.866 65.9597 96.6799 63.5501C98.2899 58.3401 103.57 55.3401 108.49 56.8601L133.55 64.5401C134.743 64.9447 135.845 65.5806 136.793 66.4113C137.74 67.242 138.515 68.2514 139.072 69.3816C139.629 70.5119 139.958 71.7408 140.04 72.9983C140.122 74.2558 139.956 75.5171 139.55 76.7101C139.208 77.9269 138.63 79.0644 137.849 80.0575C137.067 81.0505 136.097 81.8796 134.994 82.4974C133.892 83.1151 132.678 83.5092 131.423 83.6572C130.168 83.8053 128.896 83.7043 127.68 83.3601Z" fill="#BBBCF5"/>
<path d="M105.68 57.3401C106.392 57.3413 107.1 57.4492 107.78 57.6601L127.01 63.5401C131.18 64.8301 133.41 69.6801 132.01 74.3501C131.52 76.1413 130.475 77.7312 129.025 78.8917C127.575 80.0523 125.795 80.7238 123.94 80.8101C123.225 80.8096 122.513 80.7017 121.83 80.4901L102.6 74.6101C101.594 74.2877 100.667 73.7569 99.8791 73.0521C99.0917 72.3474 98.4616 71.4847 98.03 70.5201C97.0749 68.405 96.936 66.0114 97.64 63.8001C98.1322 62.0081 99.179 60.4179 100.631 59.2574C102.082 58.097 103.864 57.4258 105.72 57.3401M105.72 56.3401C103.655 56.4321 101.672 57.1753 100.055 58.4632C98.4387 59.7512 97.2711 61.5179 96.72 63.5101C95.12 68.7101 97.64 74.1101 102.35 75.5101L121.58 81.4001C122.358 81.6376 123.167 81.7589 123.98 81.7601C126.044 81.6703 128.027 80.9291 129.644 79.6428C131.261 78.3565 132.428 76.5912 132.98 74.6001C134.58 69.3901 132.06 63.9901 127.35 62.5401L108.07 56.7201C107.292 56.4834 106.483 56.3621 105.67 56.3601L105.72 56.3401Z" fill="#8072D0"/>
<path d="M104.34 72.45L112.34 74.9L115.01 75.72L116.15 76.0701L120.82 77.5L121.07 77.58C121.414 77.6805 121.765 77.7573 122.12 77.81C123.682 78.0093 125.261 77.6156 126.547 76.7066C127.833 75.7976 128.731 74.4395 129.064 72.9006C129.397 71.3616 129.14 69.7538 128.345 68.3947C127.55 67.0356 126.274 66.0241 124.77 65.56L116.3 62.97L111.68 61.54L110.54 61.19L108.09 60.44H107.87C107.599 60.3563 107.321 60.2961 107.04 60.26C105.486 60.0751 103.918 60.4762 102.644 61.385C101.37 62.2939 100.48 63.6452 100.149 65.175C99.8176 66.7047 100.069 68.303 100.853 69.6576C101.637 71.0121 102.898 72.0256 104.39 72.5L104.34 72.45Z" fill="white"/>
<path d="M111.19 60.4L116.39 77.14L121.77 78.79L116.56 62.05L111.19 60.4Z" fill="#BBBCF5"/>
<path d="M106.8 59.0701L112 75.8001L115.08 76.7401L109.87 60.0001L107.04 59.1301L106.8 59.0701Z" fill="#BBBCF5"/>
<path d="M107.13 68.42L121.04 72.72C121.447 72.8417 121.886 72.7975 122.26 72.597C122.635 72.3966 122.915 72.0562 123.04 71.65C123.159 71.243 123.114 70.8055 122.913 70.4315C122.713 70.0576 122.375 69.777 121.97 69.65L108.06 65.4C107.653 65.2784 107.214 65.3226 106.84 65.523C106.465 65.7235 106.185 66.0639 106.06 66.47C105.953 66.8703 106.005 67.2963 106.204 67.6595C106.403 68.0227 106.735 68.2951 107.13 68.42Z" fill="#1E1840"/>
<path d="M136.63 91.7903L141.142 93.5437C144.179 94.7242 147.598 93.2191 148.778 90.1819L151.039 84.3658C152.219 81.3287 150.714 77.9096 147.677 76.7292L143.166 74.9757C140.129 73.7953 136.71 75.3004 135.529 78.3376L133.269 84.1537C132.088 87.1908 133.593 90.6099 136.63 91.7903Z" fill="#BBBCF5"/>
<path d="M146.36 79.973L145.614 79.6832C143.818 78.9849 141.795 79.8752 141.097 81.6718L139.612 85.4933C138.913 87.2898 139.804 89.3122 141.6 90.0105L142.346 90.3003C144.142 90.9986 146.165 90.1083 146.863 88.3118L148.348 84.4903C149.047 82.6937 148.156 80.6713 146.36 79.973Z" fill="white"/>
<path d="M144.6 76.9601C145.178 76.9608 145.752 77.0693 146.29 77.2801L147.5 77.7501C148.659 78.2012 149.591 79.094 150.092 80.2323C150.593 81.3706 150.621 82.6611 150.17 83.8201L147.76 90.0301C147.422 90.9141 146.822 91.6744 146.042 92.2102C145.261 92.746 144.337 93.0319 143.39 93.0301C142.806 93.0328 142.226 92.9277 141.68 92.7201L140.47 92.2501C139.311 91.799 138.379 90.9062 137.878 89.7679C137.378 88.6296 137.349 87.3391 137.8 86.1801L140.22 79.9701C140.556 79.0845 141.155 78.3226 141.936 77.7865C142.717 77.2503 143.643 76.9655 144.59 76.9701M144.59 75.9701C143.443 75.9695 142.324 76.316 141.378 76.9639C140.432 77.6118 139.704 78.5308 139.29 79.6001L136.87 85.8101C136.599 86.506 136.467 87.2486 136.483 87.9954C136.499 88.7422 136.662 89.4785 136.963 90.1622C137.264 90.8458 137.697 91.4634 138.237 91.9796C138.777 92.4957 139.414 92.9003 140.11 93.1701L141.32 93.6401C141.977 93.8946 142.675 94.0268 143.38 94.0301C144.527 94.0307 145.647 93.6842 146.593 93.0363C147.538 92.3884 148.266 91.4694 148.68 90.4001L151.1 84.1901C151.643 82.7842 151.606 81.2206 150.999 79.8414C150.392 78.4621 149.263 77.3794 147.86 76.8301L146.65 76.3601C145.994 76.1009 145.295 75.9685 144.59 75.9701Z" fill="#8072D0"/>
<path d="M77.66 92.9901L70.27 126.48L78.36 128.8L84.04 93.8201L77.66 92.9901Z" fill="#8072D0"/>
<path d="M152.27 97.46C156.047 101.606 159.525 106.014 162.68 110.65C164.26 112.98 165.76 115.37 167.17 117.8C167.88 119.01 168.58 120.23 169.25 121.46C170.06 122.669 170.618 124.03 170.89 125.46C171 126.46 169.89 127.29 169.07 126.46C168.229 125.39 167.574 124.187 167.13 122.9C166.6 121.68 166.05 120.47 165.46 119.27C164.213 116.757 162.88 114.3 161.46 111.9C158.548 107.074 155.255 102.489 151.61 98.19C151.16 97.66 151.85 97 152.27 97.46Z" fill="white"/>
<path d="M128.53 150.52C131.91 149.84 135.28 149.3 138.61 148.43C148.826 145.789 158.548 141.514 167.4 135.77C167.91 135.44 168.33 136.27 167.84 136.6C161.992 140.636 155.726 144.029 149.15 146.72C142.684 149.469 135.892 151.377 128.94 152.4C127.77 152.49 127.32 150.72 128.53 150.52Z" fill="white"/>
<path d="M148.11 163.47C150.51 161.85 153.01 160.47 155.31 158.67C157.625 156.872 159.81 154.914 161.85 152.81C165.911 148.599 169.385 143.859 172.18 138.72C172.6 137.95 173.71 138.66 173.33 139.42C170.633 144.8 167.222 149.792 163.19 154.26C161.18 156.49 159.026 158.584 156.74 160.53C154.489 162.58 152.041 164.403 149.43 165.97C147.82 166.83 146.68 164.46 148.11 163.47Z" fill="white"/>
<path d="M104.25 133.29C110.41 126.84 114.52 119.13 114.82 110.06C114.82 109.927 114.873 109.8 114.966 109.707C115.06 109.613 115.187 109.56 115.32 109.56C115.453 109.56 115.58 109.613 115.674 109.707C115.767 109.8 115.82 109.927 115.82 110.06C115.859 117.356 113.887 124.522 110.12 130.77C110.2 130.786 110.274 130.824 110.333 130.881C110.391 130.938 110.432 131.01 110.45 131.09C115.385 150.537 124.997 168.484 138.45 183.37C142.26 187.606 146.317 191.613 150.6 195.37C151.77 196.37 150.03 197.96 148.86 196.99C133.2 183.93 121.7 166.42 114.47 147.64C112.47 142.405 110.843 137.035 109.6 131.57C108.66 132.992 107.599 134.33 106.43 135.57C105.02 137.06 102.85 134.72 104.25 133.29Z" fill="white"/>
<path d="M137.84 195.21C140.16 197.99 142.583 200.703 145.11 203.35L197.23 161.96C196.15 160.833 195.103 159.707 194.09 158.58L137.84 195.21Z" fill="#8072D0"/>
<path d="M47.05 35.2201C50.5084 33.6406 54.3344 33.0421 58.11 33.4901C61.84 34.0901 65.44 36.3501 66.96 39.8201C69.2299 45.0301 66.22 51.2201 61.85 54.8201C57.48 58.4201 51.97 60.3701 47.02 63.1701C42.07 65.9701 37.34 70.2501 36.62 75.8901C36.06 80.2301 37.99 84.4901 40.24 88.2401C42.49 91.9901 45.33 95.7601 47.24 99.8701C49.15 103.98 50.24 108.71 48.91 113.04C47.58 117.37 43.46 121.04 38.91 120.7C34.97 120.4 31.79 117.34 27.98 116.25C20.98 114.25 12.7799 119.25 6.35995 115.69C2.27995 113.46 0.45996 108.34 0.83996 103.69C1.21996 99.0401 3.37995 94.7601 5.57995 90.6901C11.91 78.9301 19.33 68.0201 26.5 56.7901C32.28 47.8201 36.52 39.5901 47.05 35.2201Z" fill="white"/>
<mask id="mask0_13_982" style="mask-type:luminance" maskUnits="userSpaceOnUse" x="0" y="33" width="68" height="88">
<path d="M47.05 35.2201C50.5084 33.6406 54.3344 33.0421 58.11 33.4901C61.84 34.0901 65.44 36.3501 66.96 39.8201C69.2299 45.0301 66.22 51.2201 61.85 54.8201C57.48 58.4201 51.97 60.3701 47.02 63.1701C42.07 65.9701 37.34 70.2501 36.62 75.8901C36.06 80.2301 37.99 84.4901 40.24 88.2401C42.49 91.9901 45.33 95.7601 47.24 99.8701C49.15 103.98 50.24 108.71 48.91 113.04C47.58 117.37 43.46 121.04 38.91 120.7C34.97 120.4 31.79 117.34 27.98 116.25C20.98 114.25 12.7799 119.25 6.35995 115.69C2.27995 113.46 0.45996 108.34 0.83996 103.69C1.21996 99.0401 3.37995 94.7601 5.57995 90.6901C11.91 78.9301 19.33 68.0201 26.5 56.7901C32.28 47.8201 36.52 39.5901 47.05 35.2201Z" fill="white"/>
</mask>
<g mask="url(#mask0_13_982)">
<path d="M4.06994 49.25C4.30994 48.82 4.92994 49.25 4.70994 49.64C2.95738 53.0229 2.30369 56.8681 2.83995 60.64C3.64325 58.8366 4.8675 57.2523 6.40994 56.0201C9.00428 53.8491 11.9636 52.1561 15.1499 51.0201C22.1499 48.4101 29.5899 47.9501 36.8799 46.7201C43.9599 45.5201 51.0699 43.3801 56.1599 38.0501C58.3713 35.8151 59.9128 33.0058 60.6099 29.9401C61.2225 26.7701 60.7357 23.486 59.2299 20.6301C55.9899 14.2501 49.2299 10.8901 42.2999 10.6301C34.6199 10.3801 27.4099 13.63 21.2299 17.92C19.7199 18.98 18.2299 20.1101 16.8099 21.2501C16.0199 21.8701 14.9399 20.7501 15.7299 20.0801C21.4099 15.2901 28.1099 11.1401 35.4699 9.63005C42.3999 8.20005 50.1399 9.15005 55.7299 13.7601C60.7299 17.8601 63.6199 24.39 62.1099 30.82C60.6299 37.06 55.4599 41.9001 49.8799 44.6501C42.8799 48.1101 34.8799 48.6501 27.2699 49.8001C20.5599 50.8001 13.4499 52.4101 8.03994 56.8001C6.75857 57.7308 5.66013 58.8903 4.79994 60.2201C4.46427 60.7177 4.23276 61.2781 4.11933 61.8676C4.00591 62.4571 4.01293 63.0634 4.13995 63.6501C4.74995 65.41 7.23995 64.4201 8.49995 64.1101L14.3699 62.6301C22.2942 60.7344 30.1064 58.3974 37.7699 55.6301C51.1799 50.5501 64.1999 42.9701 73.0599 31.43C74.0933 30.0967 75.0599 28.7067 75.9599 27.2601C76.0167 27.1965 76.0942 27.1552 76.1787 27.1435C76.2631 27.1317 76.3489 27.1503 76.4209 27.1959C76.4929 27.2415 76.5464 27.3112 76.5718 27.3925C76.5973 27.4738 76.5931 27.5615 76.5599 27.64C69.2499 39.79 57.3599 48.4401 44.6299 54.2601C37.2856 57.5301 29.6997 60.2281 21.9399 62.3301C17.9399 63.4401 13.9399 64.4701 9.93994 65.4801C8.22994 65.9201 6.14994 66.79 4.39994 66.1C4.28986 66.0427 4.18302 65.9792 4.07994 65.9101C4.64426 67.4892 5.36097 69.0097 6.21994 70.4501C10.0299 76.8701 16.1099 81.6001 22.0799 85.8901C28.2599 90.34 34.7699 94.61 39.6999 100.51C43.9799 105.63 47.2599 112.18 46.8399 119.01C46.4299 125.57 42.5099 132.45 35.9799 134.5C35.2499 134.73 34.7799 133.5 35.5099 133.22C41.2599 131.08 44.8199 125.48 45.3599 119.48C45.9799 112.6 42.5599 105.99 38.1699 100.92C28.4699 89.7201 13.2899 84.3 5.50994 71.24C1.67994 64.64 0.269942 56.1101 4.06994 49.25Z" fill="#BBBCF5"/>
<path d="M-4.32009 117.65C-0.0200872 119.54 4.6799 120.79 9.35991 119.92C11.3672 119.652 13.2937 118.957 15.0096 117.882C16.7256 116.806 18.1911 115.375 19.3074 113.686C20.4237 111.996 21.1649 110.087 21.481 108.087C21.7971 106.086 21.6808 104.042 21.1399 102.09C20.1505 97.9691 18.1031 94.1776 15.1999 91.09C11.8599 87.36 7.79991 84.4001 3.76991 81.4701C3.29991 81.1301 3.76992 80.3501 4.24992 80.6901C11.6899 85.9201 19.7799 91.7701 22.1899 101.04C23.3941 105.205 22.9613 109.673 20.9799 113.53C18.814 117.17 15.2934 119.802 11.1899 120.85C5.79297 122.185 0.0889635 121.382 -4.73009 118.61C-5.26009 118.29 -4.89009 117.42 -4.32009 117.65Z" fill="#BBBCF5"/>
</g>
<path d="M75.6801 63.98C75.9505 65.3005 75.8076 66.6722 75.2708 67.9086C74.734 69.145 73.8294 70.186 72.6801 70.89C71.5063 71.5518 70.1439 71.7992 68.8124 71.5924C67.4809 71.3856 66.2578 70.7367 65.3401 69.75C62.5501 66.56 64.1601 61.89 67.3401 59.67C70.8201 57.28 74.9101 60.25 75.6801 63.98Z" fill="white"/>
<path d="M75.3399 49.8401C75.4505 50.3491 75.4153 50.879 75.2385 51.369C75.0616 51.859 74.7501 52.2891 74.3399 52.6101C73.8935 52.9206 73.3593 53.0797 72.8158 53.0639C72.2723 53.0482 71.7482 52.8584 71.3206 52.5226C70.8929 52.1868 70.5844 51.7226 70.4402 51.1983C70.2961 50.674 70.324 50.1173 70.5199 49.6101C70.6949 49.094 71.0332 48.6488 71.4836 48.3419C71.934 48.0351 72.4721 47.8831 73.0165 47.9091C73.5609 47.9351 74.0821 48.1376 74.5012 48.4859C74.9204 48.8343 75.2148 49.3096 75.3399 49.8401Z" fill="white"/>
<path d="M6.03001 127.16C5.87001 125.25 7.66001 123.77 9.37001 122.9C12.0016 121.588 14.8803 120.846 17.8182 120.722C20.7561 120.597 23.6872 121.094 26.42 122.18C26.9278 122.322 27.4006 122.567 27.8085 122.901C28.2165 123.235 28.5507 123.65 28.79 124.12C28.929 124.612 28.9297 125.132 28.7921 125.625C28.6545 126.117 28.3839 126.562 28.01 126.91C27.2466 127.592 26.3466 128.103 25.37 128.41C22.23 129.59 6.62001 134.27 6.03001 127.16Z" fill="white"/>
<path d="M49.2999 134.87C47.5199 135.31 45.3699 135.26 44.1799 133.87C43.8063 133.385 43.5489 132.821 43.4276 132.222C43.3062 131.622 43.3241 131.002 43.4799 130.41C43.7874 129.227 44.3131 128.111 45.0299 127.12C47.0899 123.94 52.3899 119.34 55.8299 123.66C59.5199 128.31 53.5599 133.82 49.2999 134.87Z" fill="white"/>
<path d="M47.6799 0.500024C40.6799 0.240024 33.6799 37.1 31.8899 82.84C30.0999 128.58 34.3499 165.84 41.3099 166.14" stroke="#8072D0" stroke-miterlimit="10"/>
<path d="M177.68 358.26C175.42 361.17 171.28 362.97 167.96 361.37C164.45 359.69 163.37 355.17 163.66 351.29C163.796 347.678 165.141 344.216 167.48 341.46C169.91 338.83 173.79 337.38 177.22 338.46C185.83 341.14 181.48 353.37 177.68 358.26Z" fill="#3F408B"/>
<path d="M370.83 298.86C371.215 299.763 371.325 300.76 371.147 301.726C370.97 302.691 370.511 303.583 369.83 304.29C369.193 304.912 368.419 305.377 367.571 305.646C366.722 305.916 365.822 305.984 364.943 305.844C364.064 305.704 363.229 305.361 362.506 304.841C361.784 304.321 361.192 303.639 360.78 302.85C357.77 296.6 368.11 293.22 370.83 298.86Z" fill="#3F408B"/>
<path d="M165.44 379.34C164.753 381.452 163.262 383.209 161.29 384.23C160.303 384.719 159.213 384.961 158.113 384.937C157.012 384.912 155.934 384.622 154.97 384.09C154.022 383.53 153.256 382.708 152.763 381.724C152.27 380.74 152.071 379.634 152.19 378.54C152.352 377.642 152.712 376.792 153.245 376.051C153.778 375.311 154.47 374.699 155.27 374.26C159.81 371.65 167.93 371.97 165.44 379.34Z" fill="#3F408B"/>
<path d="M146.59 370.87C140.01 372.48 141.29 364.46 146.35 363.21C152.38 361.72 151.85 369.58 146.59 370.87Z" fill="#3F408B"/>
<path d="M222.74 369.95C228.53 373.95 233.85 378.95 240.45 381.44C252.08 385.83 266.45 380.85 272.93 370.22C276.31 364.63 277.58 357.94 281.19 352.5C288.63 341.3 303.91 338.29 317.31 339.44C322.2 339.86 327.12 340.69 331.98 340.03C346.56 338.03 356.28 322.84 357.6 308.19C359.24 308.05 360.21 309.95 360.6 311.54C373.6 360.26 309.25 389.07 272.52 403.28C234.18 418.12 190.46 409.08 174.39 369.5C182.68 371.7 187.2 374.15 194.85 369.08C204.89 362.43 212.56 362.82 222.74 369.95Z" fill="#3F408B"/>
<mask id="mask1_13_982" style="mask-type:luminance" maskUnits="userSpaceOnUse" x="174" y="308" width="189" height="103">
<path d="M222.74 369.95C228.53 373.95 233.85 378.95 240.45 381.44C252.08 385.83 266.45 380.85 272.93 370.22C276.31 364.63 277.58 357.94 281.19 352.5C288.63 341.3 303.91 338.29 317.31 339.44C322.2 339.86 327.12 340.69 331.98 340.03C346.56 338.03 356.28 322.84 357.6 308.19C359.24 308.05 360.21 309.95 360.6 311.54C373.6 360.26 309.25 389.07 272.52 403.28C234.18 418.12 190.46 409.08 174.39 369.5C182.68 371.7 187.2 374.15 194.85 369.08C204.89 362.43 212.56 362.82 222.74 369.95Z" fill="white"/>
</mask>
<g mask="url(#mask1_13_982)">
<path d="M287.14 409.82C286.602 416.554 287.696 423.319 290.33 429.54C290.68 430.35 291.73 430.09 292.04 429.42C292.5 428.42 292.99 427.42 293.5 426.42C297.6 418.64 303.13 411.73 308.84 405.09C314.55 398.45 320.69 391.81 325.84 384.59C330.94 377.52 335.34 369.68 337.36 361.13C338.533 356.183 338.807 351.065 338.17 346.02C345.693 346.699 353.257 345.265 360.01 341.88C368.5 337.69 375.55 331.01 381.16 323.46C381.6 322.86 380.65 322.25 380.16 322.83C377.014 326.914 373.414 330.628 369.43 333.9C362.43 339.61 353.97 343.74 344.87 344.43C342.537 344.609 340.193 344.559 337.87 344.28C337.65 343.04 337.4 341.81 337.06 340.6C336.172 337.331 334.786 334.217 332.95 331.37C331.083 328.557 328.709 326.116 325.95 324.17C325.13 323.57 324.26 324.89 325.09 325.49C325.742 325.975 326.363 326.499 326.95 327.06C331.67 331.602 334.822 337.528 335.95 343.98C330.923 343.145 326.18 341.085 322.14 337.98C321.455 337.236 320.695 336.565 319.87 335.98C319.05 335.42 318 336.61 318.72 337.32C319.44 338.03 320.17 338.64 320.93 339.25C325.08 343.77 325.62 350.75 323.66 356.36C321.04 363.87 314.91 369.43 308.99 374.42C303.07 379.41 297.23 384.13 293.22 390.69C289.719 396.501 287.636 403.054 287.14 409.82ZM297.21 388.14C302.09 381.85 308.78 377.32 314.58 371.96C320.1 366.84 325.32 360.49 326.38 352.79C326.907 349.07 326.355 345.276 324.79 341.86C327.189 343.236 329.757 344.291 332.43 345C333.691 345.335 334.97 345.602 336.26 345.8C337.12 352.225 336.469 358.761 334.36 364.89C331.56 373.17 326.74 380.59 321.36 387.44C315.98 394.29 310.07 400.72 304.5 407.36C299.351 413.328 294.906 419.867 291.25 426.85C291.19 426.68 291.12 426.51 291.05 426.34C288.875 419.954 288.299 413.133 289.373 406.473C290.447 399.813 293.138 393.518 297.21 388.14Z" fill="#BBBCF5"/>
<path d="M182.16 346.93C188.777 360.389 200.455 370.679 214.639 375.552C228.823 380.424 244.359 379.481 257.85 372.93C257.939 372.898 258.037 372.9 258.125 372.935C258.213 372.97 258.286 373.036 258.329 373.121C258.371 373.206 258.382 373.303 258.358 373.395C258.335 373.487 258.278 373.567 258.2 373.62C245.312 380.319 230.356 381.854 216.376 377.914C202.395 373.973 190.443 364.853 182.95 352.41C184.937 361.381 189.419 369.607 195.88 376.14C204.14 384.75 214.99 390.38 226.24 394.01C232.034 395.891 237.965 397.319 243.98 398.28C249.827 399.361 255.816 399.439 261.69 398.51C267.144 397.552 272.202 395.03 276.25 391.25C280.025 387.592 282.96 383.156 284.85 378.25C286.967 372.713 288.123 366.856 288.27 360.93C288.361 354.069 287.909 347.211 286.92 340.42C286.71 338.71 286.55 336.99 286.31 335.29C286.16 334.22 287.82 333.86 287.97 334.95C288.47 338.51 289.07 342.05 289.46 345.63C289.85 349.21 290.13 352.63 290.21 356.14C290.465 362.609 289.685 369.077 287.9 375.3C286.341 380.568 283.743 385.471 280.26 389.72C276.642 394.099 271.878 397.385 266.5 399.21C260.75 401.14 254.5 401.33 248.5 400.75C242.253 400.08 236.077 398.869 230.04 397.13C218.11 393.8 206.46 388.52 197.22 380.13C188.97 372.62 182.64 362.54 180.79 351.44C180.56 350.08 180.41 348.71 180.31 347.34C180.29 346.33 181.77 346.13 182.16 346.93Z" fill="#BBBCF5"/>
</g>
<path d="M340.46 303.2C341.307 300.599 342.705 298.211 344.56 296.2C345.388 295.207 346.475 294.463 347.7 294.05C348.318 293.86 348.979 293.867 349.593 294.072C350.206 294.276 350.74 294.667 351.12 295.19C351.411 295.751 351.574 296.369 351.6 297C351.98 301.29 350.53 308.62 346.38 311C341.17 314.07 339.21 307.09 340.46 303.2Z" fill="#3F408B"/>
<path d="M165.157 242.151C167.798 238.397 166.897 233.214 163.143 230.573C159.39 227.932 154.206 228.834 151.565 232.587C148.924 236.341 149.826 241.524 153.579 244.165C157.333 246.806 162.517 245.904 165.157 242.151Z" fill="#1E1840"/>
<path opacity="0.8" d="M122.98 215.9L123.74 241.29C124.13 254.29 160.74 264.12 210.6 266.11L209.84 240.71C160.01 238.72 123.37 228.87 122.98 215.9Z" fill="#BBBCF5"/>
<path d="M167.93 69.86C168.197 71.2692 168.897 72.5598 169.934 73.5513C170.97 74.5429 172.29 75.1857 173.71 75.39C172.3 75.6554 171.009 76.3555 170.017 77.3921C169.025 78.4287 168.383 79.7498 168.18 81.17C167.917 79.7589 167.218 78.4659 166.181 77.4736C165.144 76.4814 163.821 75.84 162.4 75.64C163.811 75.376 165.103 74.6763 166.095 73.6395C167.087 72.6026 167.729 71.2808 167.93 69.86Z" fill="#BBBCF5"/>
<path d="M120.59 270.52C120.853 271.931 121.552 273.224 122.589 274.216C123.626 275.209 124.949 275.85 126.37 276.05C124.96 276.315 123.669 277.016 122.677 278.052C121.685 279.089 121.043 280.41 120.84 281.83C120.575 280.42 119.875 279.129 118.838 278.137C117.801 277.145 116.48 276.503 115.06 276.3C116.471 276.037 117.764 275.338 118.756 274.301C119.749 273.264 120.39 271.941 120.59 270.52Z" fill="#BBBCF5"/>
<path d="M207.59 134.57C207.854 135.98 208.554 137.273 209.591 138.265C210.627 139.257 211.949 139.899 213.37 140.1C211.96 140.365 210.669 141.065 209.677 142.102C208.685 143.139 208.043 144.46 207.84 145.88C207.575 144.47 206.875 143.179 205.838 142.187C204.801 141.195 203.48 140.553 202.06 140.35C203.471 140.087 204.764 139.388 205.756 138.351C206.749 137.314 207.39 135.991 207.59 134.57Z" fill="#BBBCF5"/>
<path d="M253.41 276.18C253.674 277.59 254.374 278.883 255.411 279.875C256.448 280.867 257.769 281.509 259.19 281.71C257.78 281.974 256.487 282.674 255.495 283.71C254.503 284.747 253.862 286.069 253.66 287.49C253.396 286.079 252.696 284.787 251.66 283.795C250.623 282.803 249.301 282.161 247.88 281.96C249.291 281.696 250.583 280.996 251.575 279.959C252.567 278.923 253.209 277.601 253.41 276.18Z" fill="#BBBCF5"/>
</svg>
