<svg width="474" height="532" viewBox="0 0 474 532" fill="none" xmlns="http://www.w3.org/2000/svg">
<path d="M317.458 238.5C291.174 228.857 265.161 146.373 265.161 146.373L294.185 120.406L332.863 208.583L317.446 238.5H317.458Z" fill="#F2C7C4"/>
<path d="M327.818 460C326.983 460 326.16 460 325.325 460C302.817 460 280.308 459.977 257.811 459.977C257.67 458.718 257.541 457.46 257.399 456.202C250.79 395.755 243.805 340.812 240.124 312.847C238.513 300.534 237.549 293.455 237.549 293.455L288.846 242.087C323.714 264.22 330.029 388.958 328.383 442.407C328.23 447.464 328.042 453.414 327.818 460Z" fill="#6853B2"/>
<path d="M271.547 432.54C269.324 438.762 264.197 448.358 257.399 456.19C250.79 395.743 243.805 340.801 240.124 312.835C243.64 309.907 247.345 307.226 251.049 304.944C254.565 323.149 266.067 338.355 271.088 356.183C277.591 379.35 279.755 409.667 271.535 432.552L271.547 432.54Z" fill="#9187D3"/>
<path d="M304.287 459.988C302.628 437.833 301.241 415.653 299.912 393.474C298.548 370.601 297.172 347.727 295.808 324.854C295.643 322.044 300.006 322.067 300.171 324.854C300.935 337.743 301.688 350.632 302.452 363.521C303.804 386.394 305.169 409.267 306.403 432.141C306.909 441.419 307.285 450.698 307.65 459.988C306.533 459.988 305.416 459.988 304.298 459.988H304.287Z" fill="#9187D3"/>
<path d="M176.009 459.965H144.315C157.04 402.035 182.065 294.055 197.459 259.01L263.609 308.708C261.798 324.254 239.101 389.663 214.264 459.965H176.009Z" fill="#6853B2"/>
<path d="M218.838 346.563C217.333 352.902 215.793 359.229 214.217 365.555C208.572 388.193 202.527 410.737 195.848 433.081C193.166 442.054 190.426 451.027 187.58 459.965H183.805C190.285 438.126 196.518 416.218 202.386 394.215C205.385 382.984 208.266 371.729 211.03 360.452C212.417 354.807 213.77 349.162 215.099 343.505C216.428 337.861 217.545 332.122 219.085 326.536C219.791 323.972 223.684 324.572 223.213 327.265C222.072 333.745 220.355 340.166 218.838 346.575V346.563Z" fill="#9187D3"/>
<path d="M312.519 283.13C297.513 234.008 269.712 220.872 269.712 220.872L209.254 232.785C209.254 232.785 193.707 250.778 177.243 322.761L312.53 283.141L312.519 283.13Z" fill="#6853B2"/>
<path d="M332.863 208.571L298.995 213.793L275.181 162.107L276.604 157.274L278.25 151.7L282.766 136.459L284.436 130.72L290.233 111.034C292.103 111.68 294.255 113.962 296.584 117.419C297.583 118.901 298.618 120.606 299.677 122.511C314.141 148.454 332.863 208.571 332.863 208.571Z" fill="white"/>
<path d="M169.882 133.742C169.882 133.742 180.807 197.011 209.266 232.773L269.7 220.86C270.218 219.637 270.735 218.403 271.229 217.156C273.664 211.053 275.78 204.784 277.627 198.481C290.327 155.322 290.233 111.057 290.233 111.057C277.568 106.447 264.561 104.483 264.561 104.483L254.73 102.39L250.285 101.461L230.081 97.1804C230.081 97.1804 217.933 103.825 204.444 111.586C203.127 112.363 201.775 113.127 200.446 113.903C187.357 121.582 173.986 129.791 169.893 133.754L169.882 133.742Z" fill="white"/>
<path d="M283.107 129.179C285.024 144.644 294.996 163.048 293.738 174.42C291.962 190.59 273.569 198.011 267.184 204.526L283.107 129.179Z" fill="white"/>
<path d="M253.001 145.608C252.978 145.526 252.942 145.455 252.919 145.361C252.684 144.714 252.931 144.209 253.354 143.915C253.413 143.703 253.46 143.48 253.495 143.256C253.86 141.704 256.153 142.351 255.871 143.879C255.812 144.162 255.765 144.456 255.718 144.726C260.01 156.839 264.667 168.834 269.7 180.665C272.264 186.662 274.898 192.589 277.638 198.505C275.804 204.796 273.675 211.064 271.241 217.179C269.148 214.616 267.184 211.958 265.396 209.183C257.494 197.011 252.837 182.934 251.696 168.481C251.096 160.837 251.508 153.146 253.013 145.632L253.001 145.608Z" fill="#6853B2"/>
<path d="M210.054 244.063L201.422 221.59L273.616 210.853L272.617 229.833L210.054 244.063Z" fill="#6853B2"/>
<path d="M227.658 137.094C227.27 137.094 226.918 137.059 226.565 137.059C213.323 136.576 202.469 126.745 200.434 113.891C201.751 113.115 203.104 112.339 204.432 111.575C217.933 103.813 230.081 97.1687 230.081 97.1687L250.285 101.449L254.73 102.378L255.083 107.729C256.141 123.652 243.487 137.082 227.658 137.082V137.094Z" fill="#6853B2"/>
<path d="M190.097 194.8L158.639 244.063L122.865 227.187C122.865 227.187 125.064 219.943 128.816 209.359C129.392 207.819 129.968 206.207 130.58 204.538C140.364 178.019 158.075 136.694 175.891 129.756L196.189 147.231L196.447 147.478L190.097 194.812V194.8Z" fill="white"/>
<path d="M157.851 225.635C157.91 225.318 158.004 224.953 158.004 224.659C158.027 224.236 157.957 223.824 157.769 223.448C157.733 223.307 157.675 223.177 157.616 223.048C157.616 223.048 157.616 223.024 157.604 223.013C157.604 222.989 157.581 222.977 157.569 222.954C157.545 222.907 157.522 222.871 157.498 222.824C157.322 222.472 157.063 222.178 156.734 221.966C156.452 221.707 156.134 221.531 155.758 221.437C155.511 221.401 155.264 221.354 155.029 221.319C154.499 221.307 154.017 221.425 153.547 221.684C153.5 221.707 153.465 221.731 153.418 221.754C153.394 221.754 153.382 221.778 153.359 221.79L153.323 221.813C152.806 222.131 152.441 222.436 152.124 222.966C151.971 223.224 151.853 223.577 151.736 223.871C151.712 223.93 151.689 224 151.654 224.059C151.524 224.459 151.489 224.871 151.571 225.282C151.571 225.717 151.701 226.117 151.924 226.494C152.124 226.882 152.394 227.199 152.759 227.434C153.065 227.717 153.418 227.916 153.829 228.022C154.1 228.069 154.37 228.105 154.641 228.152C155.217 228.163 155.758 228.034 156.263 227.752C156.499 227.587 156.722 227.411 156.957 227.246C157.357 226.846 157.639 226.388 157.792 225.847C157.804 225.776 157.816 225.706 157.828 225.647L157.851 225.635Z" fill="#9187D3"/>
<path d="M148.808 181.805C144.856 180.653 143.069 186.792 147.02 187.944C150.971 189.097 152.759 182.958 148.808 181.805Z" fill="#9187D3"/>
<path d="M177.455 181.888C173.504 180.735 171.716 186.874 175.667 188.026C179.619 189.179 181.406 183.04 177.455 181.888Z" fill="#9187D3"/>
<path d="M175.891 148.054C171.94 146.902 170.152 153.041 174.103 154.193C178.055 155.345 179.842 149.207 175.891 148.054Z" fill="#9187D3"/>
<path d="M130.603 210.688C129.733 210.441 129.168 209.971 128.804 209.359C129.38 207.819 129.956 206.207 130.568 204.538C131.085 204.349 131.697 204.326 132.379 204.538C136.342 205.69 134.554 211.841 130.591 210.7L130.603 210.688Z" fill="#9187D3"/>
<path d="M296.396 167.011C295.608 159.885 292.103 152.982 289.798 146.008C289.975 145.926 290.139 145.82 290.28 145.667C290.88 145.032 291.292 144.173 291.727 143.421C292.103 142.774 292.432 142.104 292.762 141.422C293.42 140.046 294.067 138.658 294.679 137.259C294.937 136.671 294.855 135.906 294.22 135.577C293.608 135.259 292.903 135.459 292.538 136.036C291.739 137.306 290.892 138.552 289.986 139.752C289.869 139.905 289.751 140.069 289.634 140.222C289.892 139.893 289.516 140.375 289.469 140.434C289.198 140.787 288.928 141.151 288.669 141.516C288.634 141.574 288.587 141.622 288.552 141.68C287.423 136.894 287.199 132.037 289.175 127.027C289.61 125.934 287.823 125.24 287.282 126.251C281.049 137.929 289.304 150.794 291.362 162.437C292.468 168.681 292.597 175.584 289.834 181.429C287.47 186.427 283.354 190.378 278.614 193.142C276.921 194.13 278.003 197.211 279.955 196.447C291.797 191.872 297.76 179.23 296.396 166.988V167.011Z" fill="#6853B2"/>
<path d="M218.827 188.285C221.484 187.521 224.46 187.627 227.212 187.38C230.069 187.133 232.927 186.839 235.761 186.462C241.288 185.745 246.78 184.71 252.237 183.546C263.327 181.17 274.216 177.736 284.671 173.35C286.717 172.492 288.516 175.42 286.423 176.443C275.874 181.547 264.879 185.592 253.53 188.473C247.886 189.908 242.159 190.955 236.384 191.743C233.456 192.142 230.528 192.484 227.576 192.73C224.707 192.966 221.673 193.377 218.827 192.801C216.439 192.319 216.686 188.885 218.827 188.273V188.285Z" fill="#6853B2"/>
<path d="M269.865 34.6526C279.25 54.0449 277.944 83.1626 277.944 83.1626C277.944 83.1626 263.244 107.964 238.56 101.979L236.714 29.3371C236.714 29.3371 266.208 27.091 269.865 34.6526Z" fill="#8072D0"/>
<path d="M270.465 43.0846C274.299 48.8234 276.709 55.5972 278.709 62.1711C279.708 65.4874 280.555 68.839 281.249 72.2258C281.696 74.4132 282.131 76.6359 282.425 78.8703C281.484 79.6582 280.696 80.6107 279.943 81.5868C279.45 78.6115 279.061 75.6127 278.462 72.6492C277.791 69.3917 276.956 66.1577 275.98 62.9825C273.993 56.4674 271.112 50.364 268.654 44.0254C268.23 42.9434 269.818 42.1203 270.465 43.0963V43.0846Z" fill="#8072D0"/>
<path d="M227.988 128.015H227.306C218.639 127.698 211.547 120.959 210.748 112.327L206.655 66.8986L244.769 74.472L244.734 81.8455V87.2904L244.675 102.084L244.734 102.861L245.181 109.623C245.863 119.607 237.901 128.027 227.976 128.027L227.988 128.015Z" fill="#F2C7C4"/>
<path d="M244.734 87.2787L244.675 102.073L244.734 102.849C229.811 103.108 219.732 92.6647 213.252 82.069C221.308 79.5876 229.552 79.1055 236.772 79.9404C239.477 80.2344 242.159 80.8695 244.734 81.8455V87.2904V87.2787Z" fill="#303030"/>
<path d="M266.702 76.9299C263.479 84.9619 257.176 92.0767 248.956 94.7345C237.572 98.4507 224.883 93.0175 216.463 84.4915C211.653 79.6347 208.008 73.5665 205.855 67.0985C201.116 53.0453 203.409 37.0752 216.051 27.2556C224.707 20.5407 240.912 17.7888 252.754 21.9989C257.4 23.6335 261.386 26.3383 263.973 30.3132C272.194 42.9317 272.123 63.3471 266.678 76.9181L266.702 76.9299Z" fill="#F2C7C4"/>
<path d="M227.341 19.5527C200.564 14.4371 176.409 33.0297 179.207 91.1711C189.968 104.084 213.37 103.119 213.37 103.119L211.406 71.6378L218.862 33.0885L227.341 19.541V19.5527Z" fill="#8072D0"/>
<path d="M183.629 7.88689C188.639 4.54705 194.754 4.18248 200.305 6.34632C200.54 6.4404 200.775 6.558 201.01 6.66384C204.774 2.71248 210.736 1.19544 215.557 4.89984C221.673 9.60384 220.755 18.3886 216.769 24.1039C214.676 27.1027 211.536 29.1725 208.078 30.2544C204.421 35.1231 197.435 37.5456 191.579 36.1579C185.664 34.7467 180.16 30.6425 178.396 24.5861C176.608 18.4356 178.02 11.6266 183.617 7.88689H183.629Z" fill="#8072D0"/>
<path d="M215.781 103.496C214.37 98.6976 213.229 93.8407 212.441 88.878C211.324 81.7867 210.677 74.6131 210.513 67.4395C210.418 63.3352 210.56 59.2545 210.912 55.162C211.065 53.3275 213.841 53.3863 213.782 55.2561C213.594 62.3592 213.629 69.4857 214.193 76.5652C214.746 83.5977 215.934 90.5126 217.251 97.4275C217.604 99.2856 217.98 101.144 218.38 102.99C217.557 103.319 216.64 103.425 215.769 103.507L215.781 103.496Z" fill="#8072D0"/>
<path d="M203.327 51.8457C199.717 49.9053 194.883 49.7054 191.755 52.3631C189.156 54.5858 188.286 58.2431 188.263 61.6653C188.227 66.0753 189.427 70.5559 192.073 74.0839C194.719 77.6119 198.894 80.0697 203.304 80.1756C207.714 80.2932 212.206 77.8471 214.099 73.8604C217.733 66.2282 209.819 55.3267 203.327 51.8339V51.8457Z" fill="#F2C7C4"/>
<path d="M208.255 67.8512C207.09 65.8755 205.409 64.1585 203.386 63.0531C202.457 62.5474 201.504 62.124 200.493 61.8418C199.47 61.5596 198.4 61.4773 197.365 61.2891C196.683 61.1715 196.353 62.2652 197.036 62.4768C197.482 62.618 197.906 62.7708 198.306 63.0178C198.705 63.2648 199.094 63.5588 199.482 63.841C199.881 64.1233 200.27 64.4173 200.646 64.723C200.834 64.8641 201.01 65.017 201.187 65.1699C201.363 65.3228 201.634 65.5109 201.74 65.7108C201.704 65.6638 201.657 65.6285 201.622 65.5815C201.681 65.6403 201.74 65.6991 201.798 65.7696C201.939 65.9225 202.092 66.0754 202.245 66.2283C202.339 66.3224 202.433 66.4047 202.527 66.4988C202.539 66.5105 202.527 66.4988 202.551 66.5223C202.916 66.828 203.233 67.2867 203.515 67.663C204.115 68.4509 204.691 69.2506 205.173 70.1208C205.397 70.5207 206.02 70.8264 206.455 70.8852C206.914 70.9558 207.49 70.8265 207.855 70.5325C208.725 69.8269 208.819 68.7802 208.266 67.8512H208.255Z" fill="#8072D0"/>
<path d="M265.067 41.7674C264.361 45.2719 253.566 45.5541 252.99 41.544C252.284 36.7341 265.867 37.7808 265.067 41.7674Z" fill="#8072D0"/>
<path d="M235.726 45.7071C235.832 49.0822 224.13 51.2695 222.813 49.5055C219.227 44.7427 235.538 39.6624 235.726 45.7071Z" fill="#8072D0"/>
<path d="M255.859 68.3568C254.095 63.5352 252.096 58.843 250.038 54.1507C249.838 53.6921 249.109 53.9038 249.273 54.3859C250.626 58.3373 252.014 62.2298 253.542 66.1224C254.283 68.004 255.342 70.0385 255.33 72.0965C255.318 73.8252 254.119 75.0718 252.79 76.0126C252.449 76.2595 252.496 76.8475 252.954 76.9298C254.542 77.2121 255.988 75.895 256.471 74.4837C257.153 72.461 256.565 70.2737 255.859 68.3568Z" fill="#303030"/>
<path d="M256.941 56.0441C257.682 54.8093 258.787 53.8567 260.104 53.2687C262.727 52.1045 266.337 52.9865 267.548 55.7854C267.795 56.3734 267.525 57.0907 266.972 57.3847C266.384 57.7023 265.737 57.5376 265.314 57.0319C265.232 56.9379 265.149 56.8438 265.079 56.7615C264.985 56.6556 265.149 56.8085 264.985 56.6556C264.808 56.491 264.632 56.3381 264.432 56.1852C264.197 56.0088 263.844 55.8089 263.374 55.6678C263.327 55.6678 263.233 55.6325 263.197 55.6325C263.08 55.609 262.962 55.5972 262.833 55.5737C262.715 55.562 262.586 55.5502 262.468 55.5502C262.445 55.5502 262.304 55.5502 262.256 55.5502C261.727 55.5737 261.339 55.656 260.892 55.8442C260.046 56.1852 259.328 56.7967 258.787 57.5611C258.188 58.3961 257.752 59.2781 257.458 60.2659C257.247 60.9833 256.059 60.7951 256.024 60.066C255.953 58.6548 256.212 57.2554 256.953 56.0324L256.941 56.0441Z" fill="#8072D0"/>
<path d="M221.649 65.1816C221.602 63.5705 222.602 61.8065 223.578 60.5834C225.624 58.0198 228.74 56.3734 232.08 56.7379C235.749 57.1378 238.772 59.3722 240.054 62.8296C240.348 63.641 239.101 64.0056 238.701 63.3353C237.219 60.8774 234.103 59.1722 231.21 59.4427C228.388 59.7014 225.824 61.8418 225.001 64.5348C224.742 65.3698 224.589 66.3694 223.695 66.7574C222.602 67.2396 221.696 66.24 221.661 65.1816H221.649Z" fill="#8072D0"/>
<path d="M249.215 79.9286C240.489 92.2648 228.082 89.1249 224.577 75.354C224.425 74.7895 224.295 74.2015 224.178 73.59C233.315 74.4132 242.182 77.2826 246.486 78.8584C246.651 78.9172 246.804 78.9761 246.968 79.0349C248.403 79.5758 249.215 79.9169 249.215 79.9169V79.9286Z" fill="#8072D0"/>
<path d="M224.178 73.59C233.315 74.4132 242.182 77.2826 246.486 78.8584C242.488 85.7968 227.306 80.352 224.178 73.59Z" fill="white"/>
<path d="M231.316 11.944C231.833 6.58148 235.185 1.83044 240.653 0.619158C244.805 -0.298122 249.12 0.866113 252.437 3.40627C252.472 3.38275 252.496 3.35924 252.531 3.34748C256.459 1.21892 261.551 1.19539 265.243 3.86491C270.206 7.45171 270.818 14.0608 267.184 18.8589C264.15 22.8691 259.258 23.8099 254.507 24.0451C252.566 24.833 250.391 24.7154 248.462 23.7511C245.322 25.2093 241.535 25.127 238.125 23.6452C233.656 21.7166 230.845 16.7774 231.316 11.944Z" fill="#8072D0"/>
<path d="M203.586 22.7397C227.329 8.75709 259.116 12.0381 269.865 34.6526C239.583 40.1798 214.44 42.179 214.44 42.179L203.586 22.7397Z" fill="#8072D0"/>
<path d="M267.184 149.03C268.289 140.763 274.792 96.3339 274.792 96.3339L254.624 118.607C246.439 127.651 246.31 141.398 254.342 150.583L256.953 153.57C256.953 153.57 266.878 151.23 267.184 149.03Z" fill="#F2C7C4"/>
<path d="M255.741 121.888L274.792 96.3574L274.428 95.4283C272.981 91.7827 273.205 87.6902 275.051 84.2446C275.345 83.6918 275.228 83.0215 274.804 82.5864C274.734 82.5159 274.663 82.4688 274.581 82.41C272.452 80.987 269.665 81.3046 267.925 83.0568C267.631 83.3508 267.384 83.6801 267.148 84.0564L266.243 85.8086L266.149 85.9851C264.597 89.0074 264.62 92.5942 266.231 95.593L256.071 121.065L255.73 121.888H255.741Z" fill="#F2C7C4"/>
<path d="M265.102 114.785L272.052 101.32C269.289 95.4871 270.147 91.4064 271.994 87.9607C272.288 87.408 272.17 86.7259 271.747 86.3025C271.676 86.2319 271.605 86.1849 271.523 86.1261C269.889 85.0324 267.866 84.9736 266.255 85.7851L266.161 85.9615C264.608 88.9838 264.632 92.5706 266.243 95.5694L268.865 102.249L265.102 114.773V114.785Z" fill="#F2C7C4"/>
<path d="M268.865 102.261L268.501 101.344C267.054 97.7098 267.278 93.6173 269.124 90.1599C269.465 89.5248 269.265 88.7251 268.666 88.3253C266.172 86.6671 262.797 87.3963 261.233 89.9482L260.245 91.8886C258.693 94.9109 258.728 98.5095 260.328 101.508L249.826 127.804L268.877 102.261H268.865Z" fill="#F2C7C4"/>
<path d="M265.384 113.327C265.667 112.351 266.078 111.422 266.431 110.469C266.784 109.493 267.09 108.505 267.372 107.518C267.666 106.494 267.925 105.471 268.077 104.425C268.23 103.366 268.148 102.355 268.054 101.285C267.713 97.7803 265.737 93.5232 268.595 90.5361C268.854 90.2656 269.218 90.6184 269.018 90.9124C267.878 92.5353 268.077 94.6991 268.513 96.5337C268.959 98.4153 269.594 100.379 269.442 102.331C269.277 104.272 269.018 106.13 268.371 107.976C267.725 109.846 266.831 111.786 265.749 113.445C265.643 113.609 265.337 113.539 265.408 113.327H265.384Z" fill="#303030"/>
<path d="M270.359 104.683C270.865 104.001 271.394 102.966 271.3 102.108C271.229 101.402 271.135 100.744 270.912 100.062C270.477 98.7564 270.088 97.4158 270.053 96.0281C269.971 93.3938 270.3 90.5362 271.57 88.1959C271.711 87.9254 272.088 88.1254 271.982 88.4076C271.464 89.8071 271.041 91.2418 270.876 92.7235C270.712 94.2053 270.935 95.6635 271.276 97.11C271.594 98.4506 272.335 99.709 272.523 101.061C272.734 102.59 271.3 103.684 270.453 104.766C270.394 104.836 270.3 104.742 270.347 104.672L270.359 104.683Z" fill="#303030"/>
<path d="M194.989 124.887C190.873 124.887 190.873 131.285 194.989 131.285C199.105 131.285 199.117 124.887 194.989 124.887Z" fill="#9187D3"/>
<path d="M215.734 161.472C211.618 161.472 211.606 167.87 215.734 167.87C219.862 167.87 219.85 161.472 215.734 161.472Z" fill="#9187D3"/>
<path d="M241.747 141.104C237.631 141.104 237.619 147.502 241.747 147.502C245.875 147.502 245.875 141.104 241.747 141.104Z" fill="#9187D3"/>
<path d="M251.931 174.291C247.815 174.291 247.803 180.688 251.931 180.688C256.059 180.688 256.059 174.291 251.931 174.291Z" fill="#9187D3"/>
<path d="M278.709 151.665C274.593 151.665 274.581 158.062 278.709 158.062C282.836 158.062 282.836 151.665 278.709 151.665Z" fill="#9187D3"/>
<path d="M273.805 116.22C269.689 116.22 269.689 122.617 273.805 122.617C277.921 122.617 277.932 116.22 273.805 116.22Z" fill="#9187D3"/>
<path d="M303.969 148.266C299.853 148.266 299.841 154.663 303.969 154.663C308.097 154.663 308.097 148.266 303.969 148.266Z" fill="#9187D3"/>
<path d="M317.928 184.475C313.812 184.475 313.8 190.872 317.928 190.872C322.056 190.872 322.056 184.475 317.928 184.475Z" fill="#9187D3"/>
<path d="M299.677 122.5C299.159 123.205 298.36 123.723 297.195 123.723C293.291 123.723 293.068 117.984 296.584 117.408C297.583 118.889 298.618 120.595 299.677 122.5Z" fill="#9187D3"/>
<path d="M208.937 199.175C204.821 199.175 204.809 205.572 208.937 205.572C213.064 205.572 213.064 199.175 208.937 199.175Z" fill="#9187D3"/>
<path d="M239.113 204.455C234.997 204.455 234.985 210.853 239.113 210.853C243.24 210.853 243.24 204.455 239.113 204.455Z" fill="#9187D3"/>
<path d="M271.547 195.788C267.431 195.788 267.419 202.186 271.547 202.186C275.675 202.186 275.663 195.788 271.547 195.788Z" fill="#9187D3"/>
<path d="M250.626 144.832C263.844 188.121 280.461 223.789 309.355 238.936C337.367 253.624 349.504 208.371 312.483 185.78C275.463 163.189 261.61 133.719 261.61 133.719L250.626 144.832Z" fill="#F2C7C4"/>
<path d="M195.001 167.317C194.425 158.438 192.32 150.03 188.098 142.186C187.251 140.61 184.511 141.645 185.134 143.386C187.863 151.018 189.885 159.203 190.391 167.305C190.638 171.269 190.579 175.243 190.179 179.195C189.744 183.452 188.509 187.497 187.839 191.684C187.498 193.789 190.567 195.506 191.614 193.213C193.39 189.297 194.048 184.828 194.578 180.582C195.119 176.184 195.283 171.739 195.001 167.305V167.317Z" fill="#6853B2"/>
<path d="M257.2 226.164C257.035 227.399 256.823 228.74 256.153 229.821C255.341 231.15 253.918 231.938 252.354 231.785C249.461 231.503 247.345 228.834 246.757 226.141C246.169 223.424 246.592 220.014 248.415 217.826C249.967 215.968 253.166 215.745 254.612 217.826C255.847 218.285 256.647 220.037 257 221.166C257.505 222.789 257.435 224.518 257.211 226.176L257.2 226.164ZM254.13 224.188C254.154 223.718 254.142 223.236 254.06 222.789C254.001 222.495 253.836 221.884 253.789 221.754C253.695 221.531 253.577 221.307 253.448 221.096C253.389 221.002 253.33 220.896 253.26 220.802C253.248 220.778 253.248 220.778 253.178 220.696C252.778 220.214 252.401 219.708 252.484 219.038C252.484 219.026 252.484 219.014 252.496 219.002C252.202 218.92 251.896 219.002 251.566 219.155C251.331 219.261 251.566 219.12 251.472 219.214C251.414 219.273 251.355 219.32 251.296 219.379C251.19 219.484 251.096 219.59 251.002 219.684C250.978 219.708 250.978 219.708 250.967 219.72C250.967 219.731 250.967 219.72 250.943 219.755C250.637 220.202 250.579 220.378 250.438 220.766C249.838 222.472 249.626 224.424 250.273 226.141C250.296 226.188 250.355 226.329 250.367 226.352C250.414 226.458 250.473 226.564 250.532 226.67C250.637 226.858 250.743 227.034 250.873 227.211C250.943 227.305 251.026 227.387 251.108 227.481C251.249 227.634 251.402 227.775 251.566 227.916C251.39 227.763 251.86 228.105 251.943 228.152C252.037 228.199 252.131 228.257 252.237 228.293C252.237 228.293 252.237 228.293 252.319 228.316C252.59 228.387 252.496 228.387 252.719 228.399C252.801 228.399 252.813 228.399 252.837 228.399C252.848 228.399 252.978 228.375 253.001 228.375C253.001 228.375 252.989 228.375 252.942 228.375C252.978 228.375 253.001 228.352 253.036 228.34C253.095 228.281 253.154 228.222 253.213 228.163C253.213 228.163 253.248 228.116 253.272 228.093C253.272 228.093 253.342 227.963 253.354 227.928C253.389 227.869 253.413 227.822 253.436 227.763C253.46 227.728 253.483 227.669 253.483 227.646C253.542 227.458 253.601 227.27 253.66 227.081C253.907 226.129 254.083 225.141 254.118 224.153L254.13 224.188Z" fill="#9187D3"/>
<path d="M249.697 234.961C249.403 233.655 248.062 233.502 247.192 234.067C246.851 233.679 246.345 233.444 245.686 233.514C239.912 234.149 233.985 234.114 228.176 234.408C222.331 234.702 216.498 234.996 210.665 235.443C209.242 235.549 209.207 237.654 210.665 237.689C215.816 237.807 220.967 237.807 226.13 237.795C225.259 239.218 225.142 241.405 224.66 242.899C224.083 244.721 223.378 246.509 222.531 248.226C220.767 251.801 218.544 255.047 215.851 257.975C210.501 263.773 203.55 268.43 196.024 270.864C194.519 271.358 195.095 273.628 196.647 273.251C205.126 271.181 212.617 266.736 218.591 260.374C221.508 257.258 224.095 253.741 226.177 250.013C227.212 248.155 228.129 246.238 228.917 244.263C229.728 242.228 231.01 239.912 230.281 237.76C235.408 237.689 240.594 237.466 245.686 237.748C246.145 237.771 246.51 237.63 246.804 237.43C248.815 246.979 250.285 256.623 251.143 266.336C251.343 268.618 254.942 268.618 254.718 266.336C253.695 255.788 252.025 245.309 249.685 234.961H249.697Z" fill="#9187D3"/>
<path d="M294.714 253.071C293.491 252.377 292.08 251.942 290.81 251.342C289.516 250.743 288.258 250.084 287.011 249.39C284.542 248.002 282.143 246.474 279.885 244.745C275.404 241.323 271.429 237.23 268.16 232.632C268.089 232.526 267.995 232.479 267.913 232.397C269.865 231.256 271.817 230.127 273.734 228.928C275.145 228.046 273.946 225.952 272.464 226.693C269.983 227.928 267.419 229.092 264.808 230.021C263.503 230.48 262.198 230.927 260.88 231.339C260.222 231.55 259.563 231.774 258.905 231.997C257.999 232.291 257.035 232.585 256.506 233.408C256.212 233.644 256.012 234.008 256.047 234.525C256.576 241.758 257.141 248.99 257.705 256.211C257.987 259.762 258.27 263.314 258.54 266.854C258.681 268.688 258.834 270.535 258.975 272.369C259.105 274.074 259.058 275.885 259.599 277.52C260.057 278.931 262.527 279.296 262.786 277.52C263.28 274.121 262.397 270.264 262.08 266.854L261.092 256.211C260.492 249.755 259.869 243.31 259.234 236.866C259.61 236.772 259.987 236.631 260.398 236.442C261.069 236.137 261.739 235.831 262.397 235.49C263.374 234.984 264.338 234.443 265.29 233.902C265.326 233.996 265.338 234.09 265.396 234.184C268.642 239.277 272.593 243.969 277.145 247.955C279.426 249.955 281.872 251.813 284.424 253.471C286.964 255.106 289.834 256.999 292.75 257.857C295.596 258.692 297.266 254.518 294.702 253.071H294.714Z" fill="#9187D3"/>
<path d="M225.647 70.5911L270.771 65.7578C279.638 64.7934 286 56.4203 284.977 47.0358C283.965 37.6514 275.957 30.8306 267.09 31.7831L221.967 36.6165C213.099 37.5808 206.737 45.9539 207.76 55.3384C208.772 64.7229 216.78 71.5437 225.647 70.5911Z" fill="white"/>
<path d="M269.301 33.9822C268.877 33.9822 268.454 34.0058 268.03 34.0528L233.409 37.7454C226.224 38.5216 221.096 45.7305 221.967 53.8096C222.79 61.3948 228.529 67.1219 235.314 67.1219C235.737 67.1219 236.161 67.0984 236.584 67.0514L271.206 63.3587C278.391 62.5826 283.518 55.3737 282.648 47.2946C281.825 39.7094 276.086 33.9822 269.301 33.9822ZM269.301 31.6302C277.168 31.6302 284.024 38.2158 284.977 47.0358C285.988 56.4203 279.932 64.7699 271.453 65.6872L236.831 69.3798C236.314 69.4386 235.808 69.4622 235.302 69.4622C227.435 69.4622 220.579 62.8766 219.626 54.0566C218.615 44.6721 224.671 36.3225 233.15 35.4052L267.772 31.7126C268.289 31.6538 268.795 31.6302 269.301 31.6302Z" fill="#6853B2"/>
<path d="M270.088 59.5602L255.682 61.1008L250.873 61.6182L248.826 61.8417L240.406 62.7354L239.948 62.7825C239.324 62.8413 238.701 62.8648 238.101 62.8295C232.915 62.512 228.552 58.4901 227.964 53.1393C227.317 47.1534 231.633 41.7909 237.607 41.1441L252.86 39.5212L261.268 38.6274L263.326 38.404L267.748 37.9336C267.878 37.9218 267.995 37.9101 268.124 37.9101C268.63 37.863 269.124 37.863 269.594 37.8865C274.781 38.2041 279.144 42.226 279.732 47.5768C280.378 53.5509 276.062 58.9134 270.088 59.5602Z" fill="#9187D3"/>
<path d="M262.409 36.84L248.062 63.594L235.302 64.3466L249.661 37.5926L262.409 36.84Z" fill="white"/>
<path d="M270.312 36.0168L255.965 62.7355L250.426 63.3235L264.785 36.5695L269.877 36.0285C270.018 36.0168 270.171 36.005 270.312 36.005V36.0168Z" fill="white"/>
<path d="M268.513 51.3635L243.476 54.0212C241.947 54.1859 240.571 53.0804 240.406 51.5399C240.242 50.0111 241.347 48.6351 242.888 48.4705L267.925 45.8128C269.453 45.6481 270.829 46.7536 270.994 48.2941C271.159 49.8229 270.053 51.1988 268.513 51.3635Z" fill="#6853B2"/>
<path d="M209.498 81.7527L195.44 84.3075C190.539 85.1982 185.844 81.947 184.953 77.0457L181.912 60.3148C181.022 55.4135 184.273 50.7182 189.174 49.8275L203.232 47.2727C208.134 46.382 212.829 49.6332 213.72 54.5345L216.76 71.2654C217.651 76.1667 214.4 80.862 209.498 81.7527Z" fill="white"/>
<path d="M192.519 56.1098L194.718 55.7099C197.453 55.2124 200.073 57.0262 200.571 59.7611L202.621 71.0304C203.118 73.7653 201.304 76.3857 198.569 76.8832L196.371 77.2831C193.636 77.7806 191.016 75.9668 190.518 73.2319L188.468 61.9626C187.971 59.2277 189.784 56.6073 192.519 56.1098Z" fill="#9187D3"/>
<path d="M197.459 50.799C197.071 50.799 196.683 50.8343 196.306 50.9049L189.333 52.175C187.651 52.4807 186.181 53.4215 185.205 54.8327C184.229 56.2439 183.864 57.9491 184.17 59.6308L187.298 76.8592C187.851 79.905 190.497 82.1277 193.602 82.1277C193.99 82.1277 194.378 82.0924 194.754 82.0218L201.728 80.7517C205.209 80.1167 207.525 76.7769 206.89 73.2959L203.762 56.0675C203.209 53.0099 200.563 50.799 197.459 50.799ZM197.459 48.447C201.61 48.447 205.303 51.4106 206.067 55.6442L209.195 72.8725C210.066 77.6353 206.902 82.1982 202.139 83.0685L195.166 84.3385C194.636 84.4326 194.107 84.4797 193.59 84.4797C189.439 84.4797 185.746 81.5161 184.981 77.2825L181.853 60.0542C180.983 55.2914 184.147 50.7285 188.909 49.8582L195.883 48.5882C196.412 48.4941 196.941 48.447 197.459 48.447Z" fill="#6853B2"/>
<path d="M70.5214 186.145C75.0372 199.892 87.4205 223.236 101.309 243.957C114.974 264.361 144.962 264.408 158.674 244.039L81.8463 175.161L70.5331 186.145H70.5214Z" fill="#F2C7C4"/>
<path d="M86.3621 147.502C88.7259 170.116 89.6784 185.369 70.5096 186.157L61.9014 157.486L86.3739 147.513L86.3621 147.502Z" fill="#F2C7C4"/>
<path d="M89.0669 120.113L73.3673 122.7C71.9326 122.935 70.6978 123.817 70.0157 125.099L61.3839 147.549C60.4078 150.089 60.349 152.888 61.2192 155.463L71.5328 185.933C72.4383 181.923 81.4112 180.829 84.0807 170.622C87.8086 159.92 78.2242 139.105 78.2242 139.105L78.8828 130.332L90.7251 125.675C92.0187 125.169 92.8184 123.782 92.5008 122.323C92.1716 120.806 90.6075 119.877 89.0669 120.124V120.113Z" fill="#F2C7C4"/>
<path d="M76.0016 136C75.0255 135.33 74.12 135.107 73.0851 135.295C72.0267 135.483 71.0506 135.989 70.0746 136.741C68.1694 138.188 66.4054 139.869 64.7826 142.292C64.5003 142.715 64.8649 143.644 65.1707 143.256C66.7583 141.21 68.5458 139.481 70.4274 138.752C71.3329 138.399 72.2619 138.164 73.1675 137.894C74.1435 137.6 75.0491 137.282 76.0016 136.8C76.2251 136.682 76.1898 136.141 76.0016 136Z" fill="#303030"/>
<path d="M79.5178 132.896L101.321 123.711C102.391 123.264 103.485 122.958 104.578 122.806C110.258 122.018 115.974 125.111 118.314 130.626L121.042 137.106C123.677 143.327 121.078 150.442 115.233 153.582L124.206 149.618C130.803 146.831 133.908 139.223 131.121 132.637L128.369 126.157C126.029 120.63 120.337 117.549 114.657 118.325C113.539 118.478 112.458 118.784 111.387 119.231L80.5174 132.402C80.1763 132.543 79.8471 132.696 79.5296 132.872L79.5178 132.896Z" fill="#9187D3"/>
<path d="M72.8264 146.902L78.4242 175.126C79.0827 178.419 81.7876 181.041 85.0451 181.323C85.245 181.335 85.4449 181.347 85.6448 181.335C89.1376 181.312 91.9599 179.007 92.8184 175.867L96.7462 161.402V161.343L115.139 153.605C115.162 153.605 115.198 153.581 115.209 153.57C121.054 150.43 123.653 143.315 121.019 137.094L118.291 130.614C115.95 125.087 110.235 122.006 104.555 122.794C103.461 122.947 102.368 123.252 101.297 123.699L79.4944 132.884L79.4591 132.907C74.4376 135.553 71.6857 141.222 72.8029 146.89L72.8264 146.902Z" fill="#6853B2"/>
<path d="M77.6597 136.177C84.8568 134.189 88.867 134.119 89.9959 134.53C90.8309 134.836 96.605 138.729 99.5097 140.704C100.486 141.363 100.874 142.609 100.462 143.715C99.9919 144.973 98.6395 145.643 97.3459 145.267L89.7137 142.539L78.6946 144.432L77.6597 136.177Z" fill="#F2C7C4"/>
<path d="M78.3301 143.927C87.2089 142.774 94.3354 145.738 95.0528 146.537C95.5349 147.078 97.9928 150.865 99.5216 153.276C100.227 154.381 99.9096 155.839 98.816 156.557C97.8516 157.192 96.5698 157.051 95.7701 156.216L92.642 152.97C92.1716 152.488 91.5012 152.253 90.8309 152.347L83.4456 153.37L78.3183 143.915L78.3301 143.927Z" fill="#F2C7C4"/>
<path d="M84.7981 152.605C89.9372 153.817 94.1708 155.922 94.7588 156.815C95.1587 157.427 96.9815 161.555 98.1222 164.165C98.6514 165.365 98.1222 166.753 96.9227 167.305C95.876 167.788 94.6295 167.446 93.9709 166.494L91.3955 162.801C91.0074 162.249 90.3841 161.919 89.702 161.896L82.2462 161.755L84.8098 152.594L84.7981 152.605Z" fill="#F2C7C4"/>
<path d="M77.6597 136.177C69.9804 137.976 65.4175 140.74 63.5242 145.985C61.6308 151.23 71.227 177.301 71.227 177.301L76.4249 181.135C76.4249 181.135 87.0677 174.491 83.2104 161.073L86.1387 150.712L77.6597 136.177Z" fill="#F2C7C4"/>
<g filter="url(#filter0_f_15_1655)">
<ellipse cx="230" cy="458.5" rx="139" ry="31.5" fill="#BBBCF5"/>
</g>
<g filter="url(#filter1_f_15_1655)">
<ellipse cx="273" cy="451.5" rx="139" ry="31.5" fill="#BBBCF5"/>
</g>
<g filter="url(#filter2_f_15_1655)">
<ellipse cx="144" cy="460.5" rx="139" ry="31.5" fill="#BBBCF5"/>
</g>
<g filter="url(#filter3_f_15_1655)">
<ellipse cx="295" cy="451.5" rx="139" ry="31.5" fill="#BBBCF5"/>
</g>
<defs>
<filter id="filter0_f_15_1655" x="51" y="387" width="358" height="143" filterUnits="userSpaceOnUse" color-interpolation-filters="sRGB">
<feFlood flood-opacity="0" result="BackgroundImageFix"/>
<feBlend mode="normal" in="SourceGraphic" in2="BackgroundImageFix" result="shape"/>
<feGaussianBlur stdDeviation="20" result="effect1_foregroundBlur_15_1655"/>
</filter>
<filter id="filter1_f_15_1655" x="94" y="380" width="358" height="143" filterUnits="userSpaceOnUse" color-interpolation-filters="sRGB">
<feFlood flood-opacity="0" result="BackgroundImageFix"/>
<feBlend mode="normal" in="SourceGraphic" in2="BackgroundImageFix" result="shape"/>
<feGaussianBlur stdDeviation="20" result="effect1_foregroundBlur_15_1655"/>
</filter>
<filter id="filter2_f_15_1655" x="-35" y="389" width="358" height="143" filterUnits="userSpaceOnUse" color-interpolation-filters="sRGB">
<feFlood flood-opacity="0" result="BackgroundImageFix"/>
<feBlend mode="normal" in="SourceGraphic" in2="BackgroundImageFix" result="shape"/>
<feGaussianBlur stdDeviation="20" result="effect1_foregroundBlur_15_1655"/>
</filter>
<filter id="filter3_f_15_1655" x="116" y="380" width="358" height="143" filterUnits="userSpaceOnUse" color-interpolation-filters="sRGB">
<feFlood flood-opacity="0" result="BackgroundImageFix"/>
<feBlend mode="normal" in="SourceGraphic" in2="BackgroundImageFix" result="shape"/>
<feGaussianBlur stdDeviation="20" result="effect1_foregroundBlur_15_1655"/>
</filter>
</defs>
</svg>
