<svg width="151" height="52" viewBox="0 0 151 52" fill="none" xmlns="http://www.w3.org/2000/svg">
<path d="M95.2701 15.19L87.0701 6.98999L73.3101 20.76L59.5401 6.98999L51.3401 15.19L65.1101 28.95L51.3401 42.72L59.5401 50.92L73.3101 37.16L87.0701 50.92L95.2701 42.72L81.5101 28.95L95.2701 15.19Z" fill="#bbbcf5"/>
<path d="M150.1 49.15H95.1001L122.58 8.07996L150.1 49.15ZM116.85 37.55H128.39L122.62 28.93L116.85 37.55Z" fill="#bbbcf5"/>
<path d="M23.21 51.94C18.6195 51.94 14.1321 50.5788 10.3152 48.0284C6.49837 45.4781 3.52348 41.8532 1.76677 37.6121C0.0100589 33.371 -0.44958 28.7043 0.445983 24.202C1.34155 19.6997 3.55209 15.5641 6.79806 12.3181C10.044 9.07211 14.1797 6.86157 18.682 5.966C23.1843 5.07044 27.851 5.53008 32.0921 7.28679C36.3332 9.0435 39.9581 12.0184 42.5084 15.8352C45.0588 19.6521 46.42 24.1395 46.42 28.73C46.4121 34.8833 43.9642 40.7822 39.6132 45.1332C35.2622 49.4842 29.3632 51.9321 23.21 51.94ZM23.21 17.12C20.9114 17.12 18.6644 17.8018 16.7533 19.0791C14.8421 20.3563 13.3528 22.1717 12.4736 24.2956C11.5944 26.4194 11.3649 28.7563 11.814 31.0107C12.2632 33.265 13.3709 35.3355 14.997 36.9602C16.6231 38.5848 18.6945 39.6908 20.9492 40.138C23.2039 40.5852 25.5406 40.3537 27.6637 39.4726C29.7868 38.5916 31.6009 37.1007 32.8766 35.1885C34.1522 33.2763 34.832 31.0287 34.83 28.73C34.8247 25.6508 33.5984 22.6993 31.4201 20.5228C29.2418 18.3464 26.2893 17.1227 23.21 17.12Z" fill="#bbbcf5"/>
<path d="M29.12 0H17.29V27.16H29.12V0Z" fill="#d3d4fb"/>
</svg>
