                        <svg width="215" height="83" viewBox="0 0 215 83" id="play_btn" fill="none"
                            xmlns="http://www.w3.org/2000/svg">
                            <style>
                                #btn #border_1 {
                                    transition: 0.2s ease-in-out;
                                }

                                #btn #border_2 {
                                    transition: 0.2s 0.1s ease-in-out;
                                }

                                #btn #border_3 {
                                    transition: 0.2s 0.2s ease-in-out;
                                }

                                #btn #border_4 {
                                    transition: 0.2s 0.3s ease-in-out;
                                }

                                #btn #letter_p {
                                    transition: 0.2s ease-in-out;
                                }

                                #btn #letter_l {
                                    transition: 0.2s 0.1s ease-in-out;
                                }

                                #btn #letter_a {
                                    transition: 0.2s 0.2s ease-in-out;
                                }

                                #btn #letter_y {
                                    transition: 0.2s 0.3s ease-in-out;
                                }

                                #btn #round {
                                    transition: 0.5s ease-in-out;
                                }

                                #btn #play_in_round {
                                    transition: 0.5s ease-in-out;
                                }

                                #btn #fone {
                                    transition: 0.5s ease-in-out;
                                }

                                #btn:hover #border_1 {
                                    fill: #3F408B;
                                }

                                #btn:hover #border_2 {
                                    fill: #3F408B;
                                }

                                #btn:hover #border_3 {
                                    fill: #3F408B;
                                }

                                #btn:hover #border_4 {
                                    fill: #3F408B;
                                }

                                #btn:hover #letter_p {
                                    fill: #3F408B;
                                }

                                #btn:hover #letter_l {
                                    fill: #3F408B;
                                }

                                #btn:hover #letter_a {
                                    fill: #3F408B;
                                }

                                #btn:hover #letter_y {
                                    fill: #3F408B;
                                }

                                #btn:hover #round {
                                    fill: #3F408B;
                                }

                                #btn:hover #play_in_round {
                                    fill: #e2e2ff;
                                }

                                #btn:hover #fone {
                                    fill: #dbdcff;
                                }
                                #btn:hover {
                                    cursor: pointer;
                                }
                            </style>
                            <g id="btn" clip-path="url(#clip0_13_591)">
                                <path id="shadow"
                                    d="M200.749 8.53271H15.9136C9.02258 8.53271 3.38501 14.0955 3.38501 20.8698V67.5354C3.38501 74.3344 9.02258 79.8725 15.9136 79.8725H200.749C207.637 79.8725 213.275 74.3097 213.275 67.5354V20.8698C213.275 14.0831 207.637 8.53271 200.749 8.53271Z"
                                    fill="#8072D0" />
                                <path id="fone"
                                    d="M198.73 5.29089H15.8329C8.98534 5.29089 3.38501 10.7733 3.38501 17.4703V63.5488C3.38501 70.2489 8.96983 75.7282 15.8329 75.7282H198.73C205.574 75.7282 211.174 70.2489 211.174 63.5488V17.4703C211.174 10.7733 205.574 5.29089 198.73 5.29089Z"
                                    fill="#3F408B" />
                                <path id="border_1"
                                    d="M145.63 3.70853H101.572C101.079 3.70853 100.605 3.51316 100.256 3.16542C99.9068 2.81768 99.7107 2.34605 99.7107 1.85427C99.7107 1.36248 99.9068 0.890833 100.256 0.543091C100.605 0.195349 101.079 0 101.572 0H145.63C146.124 0 146.598 0.195349 146.947 0.543091C147.296 0.890833 147.492 1.36248 147.492 1.85427C147.492 2.34605 147.296 2.81768 146.947 3.16542C146.598 3.51316 146.124 3.70853 145.63 3.70853Z"
                                    fill="white" />

                                <path id="border_2"
                                    d="M200.557 83H99.4346C98.9409 83 98.4674 82.8046 98.1182 82.4569C97.7691 82.1091 97.573 81.6375 97.573 81.1457C97.573 80.654 97.7691 80.1823 98.1182 79.8346C98.4674 79.4868 98.9409 79.2915 99.4346 79.2915H200.557C206.452 79.2915 211.274 73.9728 211.274 67.4334V15.5666C211.274 9.02718 206.468 3.70853 200.557 3.70853H153.707C153.213 3.70853 152.739 3.51316 152.39 3.16542C152.041 2.81768 151.845 2.34605 151.845 1.85427C151.845 1.36248 152.041 0.890833 152.39 0.543091C152.739 0.195349 153.213 0 153.707 0H200.557C208.522 0 214.997 6.98131 214.997 15.5666V67.4334C214.997 76.0032 208.528 83 200.557 83Z"
                                    fill="white" />
                                <path id="border_4"
                                    d="M46.4471 83H14.4398C6.47836 83 0 76.0156 0 67.4334V15.5666C0 6.98131 6.47836 0 14.4398 0H86.2637C86.7574 0 87.2309 0.195349 87.5801 0.543091C87.9292 0.890833 88.1253 1.36248 88.1253 1.85427C88.1253 2.34605 87.9292 2.81768 87.5801 3.16542C87.2309 3.51316 86.7574 3.70853 86.2637 3.70853H14.4398C8.54475 3.70853 3.72321 9.02718 3.72321 15.5666V67.4334C3.72321 73.9728 8.52923 79.2915 14.4398 79.2915H46.4471C46.9408 79.2915 47.4143 79.4868 47.7634 79.8346C48.1125 80.1823 48.3087 80.654 48.3087 81.1457C48.3087 81.6375 48.1125 82.1091 47.7634 82.4569C47.4143 82.8046 46.9408 83 46.4471 83Z"
                                    fill="white" />
                                <path id="border_3"
                                    d="M99.4347 83H62.1219C61.6281 83 61.1546 82.8047 60.8055 82.4569C60.4564 82.1092 60.2603 81.6376 60.2603 81.1458C60.2603 80.654 60.4564 80.1823 60.8055 79.8346C61.1546 79.4869 61.6281 79.2915 62.1219 79.2915H99.4347C99.9284 79.2915 100.402 79.4869 100.751 79.8346C101.1 80.1823 101.296 80.654 101.296 81.1458C101.296 81.6376 101.1 82.1092 100.751 82.4569C100.402 82.8047 99.9284 83 99.4347 83Z"
                                    fill="white" />
                                <path id="letter_p"
                                    d="M108.215 26.3893C109.28 27.3604 110.095 28.5717 110.592 29.9217C111.091 31.2219 111.294 32.6162 111.187 34.0041C111.078 35.2791 110.651 36.5069 109.946 37.5767C109.161 38.7205 108.031 39.5863 106.72 40.049C105.643 40.5123 104.516 40.8523 103.363 41.0627C102.258 41.2687 101.041 41.4243 99.7107 41.5294C99.1181 41.585 98.6124 41.6221 98.2028 41.6344C97.7932 41.6468 97.3185 41.6715 96.7817 41.6993H96.2109C96.0186 41.6927 95.8263 41.7061 95.6369 41.7395V50.4978C95.5541 51.0335 95.4507 51.5826 95.3266 52.145C95.2639 52.4223 95.1423 52.683 94.9699 52.9096C94.7976 53.1361 94.5786 53.3233 94.3276 53.4585C93.9713 53.6415 93.5799 53.7468 93.1795 53.7675C92.7655 53.7955 92.3496 53.781 91.9385 53.7242C91.5897 53.6856 91.2516 53.5807 90.9425 53.4152C90.6382 53.2196 90.407 52.9296 90.2848 52.5901C90.1631 52.3084 90.0594 52.0194 89.9745 51.7247C89.8664 51.3323 89.8162 50.9263 89.8256 50.5195V27.1094C89.8249 26.9251 89.8394 26.7411 89.869 26.5593L89.9528 26.0493C90.012 25.8999 90.0547 25.7445 90.08 25.5858C90.1057 25.4262 90.1484 25.2698 90.2072 25.1191C90.26 24.987 90.3244 24.8598 90.3996 24.739C90.4718 24.62 90.5654 24.5152 90.6757 24.43C90.867 24.2604 91.0908 24.1311 91.3335 24.0498C91.7664 23.9184 92.2185 23.8609 92.6707 23.8799H92.7545C93.6336 23.8242 94.6109 23.7748 95.6865 23.7315C96.5784 23.6862 97.4724 23.7079 98.361 23.7964C98.7272 23.8501 99.0958 23.8852 99.4656 23.9015C99.8069 23.9015 100.13 23.9386 100.443 23.9664L101.461 24.0498C101.802 24.0776 102.14 24.1209 102.481 24.1765C102.764 24.2322 103.024 24.2754 103.266 24.3033C103.508 24.3311 103.753 24.3743 104.011 24.43C104.269 24.4856 104.483 24.5443 104.753 24.5999C105.018 24.6571 105.27 24.7618 105.497 24.909C106.02 25.0483 106.521 25.2616 106.983 25.5425C107.38 25.7959 107.79 26.0803 108.215 26.3893ZM105.665 33.3551C105.706 32.7364 105.566 32.1189 105.261 31.5781C104.958 31.0612 104.532 30.6262 104.02 30.3111C103.452 29.9592 102.837 29.6887 102.193 29.5075C101.526 29.3119 100.844 29.1703 100.154 29.0842C99.9837 29.0842 99.751 29.0842 99.4531 29.0625L98.4975 29.0193L97.5419 28.9791C97.2317 28.9791 97.0114 28.9575 96.8407 28.9575C96.6729 28.9267 96.5025 28.9122 96.3319 28.9142H95.6524C95.6793 29.7898 95.6937 30.6284 95.6958 31.4298V34.032C95.6679 34.5388 95.6524 35.0487 95.6524 35.5555V37.0637L98.2865 37.0204C99.0381 37.0174 99.7889 36.9751 100.536 36.8937C101.332 36.8155 102.116 36.6454 102.872 36.3869C103.572 36.154 104.215 35.7794 104.762 35.2867C105.299 34.7807 105.621 34.09 105.665 33.3551Z"
                                    fill="white" />
                                <path id="letter_l"
                                    d="M134.287 50.4576C134.355 50.6564 134.384 50.8661 134.374 51.0757V51.7309C134.375 51.9495 134.332 52.1661 134.246 52.3675C134.16 52.5662 134.045 52.7515 133.905 52.9176C133.621 53.2748 133.237 53.5395 132.801 53.6778C132.187 53.8925 131.543 54.0073 130.892 54.0178C130.582 54.0456 130.253 54.058 129.915 54.058C129.573 54.0576 129.231 54.0866 128.894 54.1445H128.724C126.546 54.1713 124.295 54.1713 121.972 54.1445C121.335 54.1153 120.697 54.1226 120.061 54.1661C119.368 54.2076 118.673 54.1932 117.982 54.1229C117.337 54.0634 116.707 53.8918 116.121 53.616C115.796 53.4423 115.513 53.2012 115.289 52.909C115.066 52.6169 114.908 52.2805 114.827 51.9225C114.798 51.7905 114.783 51.6558 114.783 51.5207C114.67 50.5805 114.628 49.6333 114.656 48.6868C114.683 47.7576 114.698 46.8408 114.7 45.9363L114.783 39.8048V34.1308C114.783 33.1151 114.791 32.2127 114.805 31.4236C114.82 30.6345 114.84 29.7599 114.867 28.7998V28.5896C114.895 28.3053 114.917 28.0241 114.932 27.7429C114.948 27.4616 114.954 27.1773 114.954 26.8961C114.989 26.3192 115.148 25.7565 115.419 25.2458C115.595 24.8176 115.909 24.4606 116.313 24.2321C116.701 23.9724 117.161 23.8396 117.629 23.852C117.827 23.852 118.016 23.852 118.203 23.8705C118.389 23.8891 118.562 23.9076 118.733 23.9354C118.904 23.9631 119.069 24.0207 119.22 24.1054C119.394 24.2022 119.558 24.3149 119.71 24.4423C119.895 24.6621 120.051 24.904 120.176 25.1623C120.288 25.4606 120.36 25.7724 120.39 26.0895C120.418 26.2873 120.446 26.4696 120.474 26.6396C120.502 26.8071 120.517 26.9766 120.517 27.1464C120.46 27.3093 120.431 27.4806 120.43 27.6532V28.8894L120.263 48.8135L128.671 48.8969H130.666C130.837 48.8969 131.02 48.8969 131.218 48.9186C131.417 48.9402 131.615 48.9557 131.814 48.9835C132.013 49.0113 132.239 49.0391 132.407 49.0669C132.579 49.0956 132.749 49.138 132.915 49.1936C133.204 49.2653 133.468 49.4114 133.682 49.617C133.956 49.8374 134.165 50.128 134.287 50.4576Z"
                                    fill="white" />
                                <path id="letter_a"
                                    d="M163.973 50.7945C164.001 50.9645 164.023 51.1283 164.035 51.2828C164.048 51.4373 164.057 51.6135 164.057 51.8113C164.054 52.1451 163.946 52.4696 163.747 52.7384C163.655 52.8885 163.541 53.0239 163.409 53.1402C163.256 53.2686 163.084 53.3728 162.9 53.4492C162.218 53.8373 161.424 53.9864 160.647 53.8726C160.259 53.7636 159.898 53.5763 159.586 53.3225C159.549 53.2807 159.506 53.2443 159.459 53.2143C159.42 53.1897 159.39 53.1527 159.375 53.1093C159.342 53.0783 159.312 53.043 159.288 53.0042C159.256 52.9584 159.212 52.922 159.161 52.8991C159.035 52.7769 158.922 52.6423 158.823 52.4974C158.736 52.3707 158.652 52.2347 158.568 52.0956C158.512 51.958 158.448 51.8238 158.376 51.6939C158.305 51.5671 158.227 51.4311 158.143 51.2921C158.06 51.153 158.029 51.0727 157.973 50.983C157.916 50.8862 157.874 50.7823 157.845 50.674C157.743 50.4595 157.671 50.2316 157.631 49.9972L156.741 47.9266C154.786 47.9266 152.84 47.9328 150.902 47.9451C148.964 47.9575 147.017 47.9513 145.062 47.9266L144.172 49.9972C144.116 50.1034 144.08 50.2184 144.063 50.3371C144.048 50.4547 144.013 50.5687 143.958 50.674C143.902 50.7883 143.852 50.8934 143.809 50.983C143.766 51.0727 143.716 51.187 143.66 51.2921C143.604 51.3972 143.499 51.5671 143.427 51.6939C143.356 51.8206 143.278 51.9534 143.195 52.0956C143.137 52.2363 143.065 52.3709 142.981 52.4974C142.881 52.6416 142.768 52.7761 142.642 52.8991C142.591 52.9212 142.546 52.9577 142.515 53.0042C142.49 53.0423 142.461 53.0775 142.428 53.1093C142.413 53.1527 142.384 53.1897 142.344 53.2143C142.297 53.2443 142.254 53.2807 142.217 53.3225C141.904 53.5752 141.543 53.7623 141.156 53.8726C140.379 53.9866 139.586 53.8375 138.904 53.4492C138.719 53.3736 138.547 53.2693 138.395 53.1402C138.262 53.0248 138.147 52.8892 138.057 52.7384C137.858 52.4696 137.749 52.1451 137.746 51.8113C137.746 51.6135 137.746 51.4373 137.768 51.2828C137.79 51.1283 137.802 50.9738 137.83 50.7945C137.887 50.5373 137.958 50.2835 138.044 50.0343L138.171 49.6542L147.005 27.9963L147.259 27.3195C147.312 27.1569 147.383 27.0004 147.47 26.8529C147.564 26.6941 147.636 26.5237 147.684 26.346C147.811 26.0087 147.966 25.683 148.15 25.3725C148.237 25.208 148.341 25.0527 148.46 24.909L148.798 24.4856C148.99 24.2455 149.238 24.0565 149.521 23.9355C150.42 23.6553 151.383 23.6553 152.282 23.9355C152.565 24.0565 152.814 24.2455 153.005 24.4856C153.201 24.739 153.415 25.0357 153.641 25.3725C153.825 25.683 153.98 26.0087 154.107 26.346C154.155 26.5237 154.227 26.6941 154.321 26.8529C154.408 27.0004 154.479 27.1569 154.532 27.3195L154.786 27.9963L163.62 49.6542L163.747 50.0343C163.835 50.2837 163.911 50.5374 163.973 50.7945ZM153.921 40.4323C153.551 39.6133 153.176 38.7696 152.794 37.895C152.413 37.0204 152.009 36.1335 151.584 35.228C151.473 34.9746 151.358 34.715 151.246 34.4461L150.905 33.6642C150.821 33.9176 150.722 34.1803 150.595 34.4461C150.467 34.7119 150.368 34.9746 150.256 35.228C149.83 36.1345 149.427 37.0235 149.046 37.895C148.665 38.7696 148.286 39.6133 147.92 40.4323L147.157 42.2865H154.671L153.921 40.4323Z"
                                    fill="white" />
                                <path id="letter_y"
                                    d="M186.055 25.5425C186.082 25.6819 186.09 25.8245 186.077 25.9659C186.055 26.1289 186.004 26.2867 185.928 26.4325C185.826 26.7935 185.699 27.1467 185.546 27.4895C185.396 27.8589 185.187 28.2013 184.926 28.5031C184.811 28.6731 184.705 28.8369 184.616 28.9914C184.526 29.146 184.423 29.3005 184.339 29.4334L183.787 30.1534L178.326 37.9908L177.349 39.227V50.4793C177.294 50.6138 177.266 50.7575 177.265 50.9027C177.264 51.0581 177.249 51.2132 177.222 51.3662C177.169 51.4967 177.126 51.631 177.095 51.768C177.063 51.9051 177.021 52.0395 176.967 52.1698C176.922 52.2486 176.894 52.3359 176.884 52.4263L176.818 52.553L176.756 52.6797C176.569 52.9785 176.323 53.2369 176.034 53.4399C175.372 53.7537 174.622 53.828 173.911 53.6501C173.533 53.6273 173.174 53.4793 172.89 53.2298C172.759 53.1497 172.644 53.0447 172.552 52.9207C172.465 52.8064 172.382 52.6797 172.295 52.5406C172.208 52.4015 172.183 52.2316 172.127 52.0739C172.071 51.9374 172.028 51.7956 172 51.6506C171.944 51.5238 171.915 51.3872 171.913 51.2488V39.3321L170.982 37.895L165.463 30.1102L164.994 29.3499C164.824 29.0965 164.613 28.7998 164.374 28.4599C164.142 28.1424 163.942 27.8029 163.778 27.4462C163.668 27.2801 163.575 27.103 163.502 26.9177C163.43 26.7354 163.368 26.5438 163.313 26.346C163.227 26.0719 163.212 25.7807 163.269 25.4992C163.347 25.1482 163.523 24.8265 163.778 24.5721C164.043 24.3297 164.344 24.1305 164.672 23.9818C165.065 23.7007 165.551 23.5791 166.03 23.6419C166.309 23.6359 166.585 23.6941 166.837 23.8119C167.064 23.9231 167.29 24.0529 167.517 24.192C167.771 24.3898 168.019 24.5999 168.258 24.8101C168.496 25.0326 168.716 25.2733 168.916 25.5301C169.142 25.8114 169.357 26.0741 169.555 26.312C169.769 26.5753 169.967 26.8508 170.148 27.1372L170.275 27.3071C170.953 28.2096 171.59 29.0769 172.186 29.9093C172.782 30.7416 173.402 31.6368 174.048 32.5949C174.141 32.7007 174.226 32.8133 174.302 32.9318C174.414 33.1028 174.541 33.3005 174.684 33.5251C174.796 33.3273 174.904 33.1512 174.994 32.9967C175.062 32.8867 175.14 32.7832 175.227 32.6876C175.878 31.7296 176.499 30.8272 177.088 29.9804C177.678 29.1336 178.315 28.26 179 27.3597L179.083 27.1897C179.306 26.9421 179.514 26.681 179.704 26.4078C179.888 26.1379 180.095 25.8629 180.324 25.5827C180.725 25.0483 181.23 24.6013 181.811 24.2692C182.23 23.974 182.708 23.7727 183.213 23.679C183.706 23.6122 184.207 23.7324 184.616 24.0158C184.786 24.1302 184.947 24.2291 185.103 24.3249C185.251 24.4088 185.387 24.5128 185.506 24.6339C185.741 24.9025 185.927 25.21 186.055 25.5425Z"
                                    fill="white" />
                                <path id="round"
                                    d="M48.8237 63.6075C62.1895 63.6075 73.0246 52.8151 73.0246 39.5021C73.0246 26.189 62.1895 15.3966 48.8237 15.3966C35.4579 15.3966 24.6228 26.189 24.6228 39.5021C24.6228 52.8151 35.4579 63.6075 48.8237 63.6075Z"
                                    fill="white" />
                                <path id="play_in_round"
                                    d="M40.1177 26.6613V52.3398C40.1202 52.7852 40.2435 53.2217 40.4745 53.6031C40.7055 53.9846 41.0357 54.2967 41.4302 54.5066C41.8246 54.7165 42.2687 54.8164 42.7154 54.7956C43.1622 54.7749 43.595 54.6343 43.9681 54.3887L63.245 41.5541C63.5823 41.3279 63.8585 41.0225 64.0495 40.665C64.2405 40.3074 64.3404 39.9086 64.3404 39.5036C64.3404 39.0986 64.2405 38.6998 64.0495 38.3422C63.8585 37.9847 63.5823 37.6794 63.245 37.4531L43.9712 24.6123C43.598 24.3659 43.1649 24.2247 42.7177 24.2035C42.2705 24.1823 41.8259 24.282 41.4309 24.492C41.0359 24.702 40.7054 25.0145 40.4742 25.3964C40.243 25.7783 40.1198 26.2153 40.1177 26.6613Z"
                                    fill="#3F408B" />
                            </g>
                            <defs>
                                <clipPath id="clip0_13_591">
                                    <rect width="215" height="83" fill="white" />
                                </clipPath>
                            </defs>
                        </svg>