<svg width="60" height="93" viewBox="0 0 60 93" fill="none" xmlns="http://www.w3.org/2000/svg">
<path d="M53.1435 73.0414L23.3437 82.6729L29.847 51.8852L59.7644 42.1244L53.1435 73.0414Z" fill="#3B3461"/>
<path d="M23.3436 82.6729L3.8147e-06 61.8107L6.62087 30.9054L29.8586 51.8852L23.3436 82.6729Z" fill="#6853B2"/>
<path d="M59.7644 42.1244L29.8587 51.8852L6.62096 30.9053L36.5267 21.1445L59.7644 42.1244Z" fill="#9187D3"/>
<path d="M40.4309 38.0436L32.2812 40.7014L25.9544 34.986L34.104 32.3282L40.4309 38.0436Z" fill="#6853B2"/>
<path d="M49.9683 67.1849H53.4963V81.0617H49.9683V67.1849Z" fill="#3B3461"/>
<path d="M49.9683 83.0021H53.4963V87.3298H49.9683V83.0021Z" fill="#3B3461"/>
<path d="M42.5714 72.7356H46.0994V92.6218H42.5714V72.7356Z" fill="#3B3461"/>
<path d="M1.45833 60.2112H4.98633V73.547H1.45833V60.2112Z" fill="#6853B2"/>
<path d="M6.56209 82.2847H10.0901V92.0808H6.56209V82.2847Z" fill="#6853B2"/>
<path d="M6.56209 57.7299H10.0901V77.8983H6.56209V57.7299Z" fill="#6853B2"/>
<path d="M15.7232 10.8309H19.2512V30.9288H15.7232V10.8309Z" fill="#9187D3"/>
<path d="M15.7232 0H19.2512V7.18536H15.7232V0Z" fill="#9187D3"/>
<path d="M21.5797 18.0164H25.1077V27.6007H21.5797V18.0164Z" fill="#9187D3"/>
</svg>
