<svg width="76" height="140" viewBox="0 0 76 140" fill="none" xmlns="http://www.w3.org/2000/svg">
<path d="M75.6702 61.5568L61.029 96.3899L37.9911 66.2137L52.5971 31.1689L75.6702 61.5568Z" fill="#3B3461"/>
<path d="M61.0289 96.3899L23.5616 101.329L0.50021 70.9413L37.9911 66.2137L61.0289 96.3899Z" fill="#6853B2"/>
<path d="M52.597 31.1689L37.9911 66.2137L0.500225 70.9412L15.1179 35.9082L52.597 31.1689Z" fill="#9187D3"/>
<path d="M33.4048 45.8219L29.5593 55.0417L19.6926 56.2883L23.5381 47.0685L33.4048 45.8219Z" fill="#6853B2"/>
<path d="M68.7906 64.4968H72.3186V98.0128H68.7906V64.4968Z" fill="#3B3461"/>
<path d="M68.7906 104.328H72.3186V110.972H68.7906V104.328Z" fill="#3B3461"/>
<path d="M31.6407 119.545H35.1687V126.825H31.6407V119.545Z" fill="#6853B2"/>
<path d="M31.6407 89.1575H35.1687V114.83H31.6407V89.1575Z" fill="#6853B2"/>
<path d="M21.8447 87.7463H25.3727V130.129H21.8447V87.7463Z" fill="#6853B2"/>
<path d="M21.8447 134.833H25.3727V139.302H21.8447V134.833Z" fill="#6853B2"/>
<path d="M14.0125 17.6685H17.5405V41.7765H14.0125V17.6685Z" fill="#9187D3"/>
<path d="M14.0125 0.816406H17.5405V8.89552H14.0125V0.816406Z" fill="#9187D3"/>
<path d="M21.8447 5.00293H25.3727V24.9832H21.8447V5.00293Z" fill="#9187D3"/>
</svg>
