<svg width="76" height="139" viewBox="0 0 76 139" fill="none" xmlns="http://www.w3.org/2000/svg">
<path d="M75.1699 60.7404L60.5287 95.5735L37.4909 65.3973L52.0968 30.3525L75.1699 60.7404Z" fill="#3B3461"/>
<path d="M60.5288 95.5735L23.0615 100.513L8.7738e-05 70.1248L37.491 65.3973L60.5288 95.5735Z" fill="#6853B2"/>
<path d="M52.0968 30.3525L37.4909 65.3973L-1.90735e-05 70.1248L14.6177 35.0918L52.0968 30.3525Z" fill="#9187D3"/>
<path d="M32.9045 45.0055L29.059 54.2253L19.1924 55.4719L23.0379 46.2521L32.9045 45.0055Z" fill="#6853B2"/>
<path d="M68.2904 63.6804H71.8184V97.1964H68.2904V63.6804Z" fill="#3B3461"/>
<path d="M68.2904 103.511H71.8184V110.156H68.2904V103.511Z" fill="#3B3461"/>
<path d="M31.1405 118.729H34.6685V126.008H31.1405V118.729Z" fill="#6853B2"/>
<path d="M31.1405 88.3411H34.6685V114.013H31.1405V88.3411Z" fill="#6853B2"/>
<path d="M21.3444 86.9299H24.8724V129.313H21.3444V86.9299Z" fill="#6853B2"/>
<path d="M21.3444 134.017H24.8724V138.486H21.3444V134.017Z" fill="#6853B2"/>
<path d="M13.5123 16.8521H17.0403V40.9601H13.5123V16.8521Z" fill="#9187D3"/>
<path d="M13.5123 0H17.0403V8.07911H13.5123V0Z" fill="#9187D3"/>
<path d="M21.3444 4.18652H24.8724V24.1668H21.3444V4.18652Z" fill="#9187D3"/>
</svg>
