<svg width="92" height="63" viewBox="0 0 92 63" fill="none" xmlns="http://www.w3.org/2000/svg">
<path d="M14.8583 36.823C15.5639 40.9272 17.0339 44.6787 19.1154 47.995C21.491 51.7699 24.6426 54.9687 28.3118 57.3912C34.6504 61.5543 42.5296 63.4241 50.5852 62.0364C55.6538 61.1544 60.2284 59.0964 64.0622 56.1682C66.4612 54.3336 68.5545 52.1815 70.3067 49.7707C73.1056 45.9252 75.0107 41.4447 75.8222 36.6701C76.3043 33.8477 76.3866 30.9312 76.0221 27.9559C75.9515 27.4032 75.881 26.8622 75.7869 26.2978C75.5046 24.6749 75.1048 23.0991 74.5991 21.582C69.7893 7.42297 55.2774 -1.54991 40.0835 1.08433C39.0016 1.26073 37.9549 1.50769 36.9201 1.78993C21.8555 6.03529 12.1418 21.0646 14.8583 36.7995V36.823Z" fill="#FFAD00"/>
<path d="M25.1954 31.6839C28.1001 48.5007 44.0937 59.7903 60.9222 56.8856C61.9924 56.6974 63.0391 56.4622 64.0622 56.1682C72.9175 49.3944 77.8096 38.046 75.7869 26.2978C72.8822 9.48098 56.9003 -1.82037 40.0718 1.08435C38.9899 1.26075 37.9432 1.50771 36.9083 1.78995C28.0531 8.57547 23.1609 19.9239 25.1836 31.6721L25.1954 31.6839Z" fill="#FDCA00"/>
<path d="M27.5357 54.6042C34.8974 51.0409 42.0946 47.1483 49.374 43.3851C56.6064 39.5161 63.7094 35.3648 70.3656 30.7549C72.1178 29.5671 73.8113 28.3441 75.4459 27.0505C75.587 26.9329 75.7164 26.8388 75.8575 26.7212C76.6102 31.5075 76.2221 36.3644 74.7873 40.892C68.5193 45.7724 61.8631 50.006 54.96 53.7692C49.374 56.8621 43.494 59.4493 37.3788 61.4485C33.1334 60.3078 29.1233 58.285 25.6776 55.4509C26.3009 55.1686 26.9124 54.8864 27.5239 54.5806L27.5357 54.6042Z" fill="#FFAD00"/>
<path d="M0.675797 52.5461C0.675797 51.6641 0.86393 50.9232 1.08737 50.2529C1.54601 48.9123 2.18108 47.8539 2.83964 46.8543C4.2038 44.8904 5.73258 43.2675 7.30842 41.7387C9.66042 39.4925 12.13 37.4463 14.6467 35.5059C14.8348 36.9288 15.1053 38.34 15.5051 39.7395C13.6941 41.3153 11.9771 42.9735 10.3895 44.7139C9.02538 46.2192 7.77883 47.7951 6.83803 49.4062C6.39115 50.1941 6.00306 51.0056 5.83842 51.6876C5.6385 52.405 5.79138 52.7931 5.83842 52.8166C5.92074 52.8401 6.17946 53.0518 6.86153 53.1929C7.50834 53.3223 8.36683 53.3458 9.26058 53.2987C11.0481 53.1694 12.965 52.746 14.8701 52.2168C16.7987 51.6406 18.7274 50.9585 20.6325 50.1941C22.4788 49.4415 24.3134 48.6183 26.1362 47.7363C33.4979 44.173 40.7068 40.2804 47.9863 36.5172C55.2187 32.6599 62.3099 28.4969 68.9779 23.887C70.7183 22.6875 72.4353 21.4644 74.0582 20.1826C75.5517 19.0066 76.9864 17.7953 78.3506 16.5487C79.7618 15.2551 81.0672 13.891 82.0432 12.5974C82.4901 11.9623 82.8899 11.3273 83.0781 10.9157C83.2074 10.951 83.3486 10.998 83.4544 11.0451C83.4779 11.0451 83.5015 11.0686 83.5132 11.0804C83.6073 11.2215 83.7719 11.2803 83.7837 11.2803C83.819 11.2567 83.6896 11.1744 83.5132 11.0804C83.4897 11.0568 83.4779 11.0333 83.4662 11.0098C83.3015 10.8569 83.3016 10.5864 83.2545 10.6099C83.231 10.5629 83.1839 10.7158 83.0899 10.9039H83.0781C82.6194 10.7746 81.9962 10.6687 81.3729 10.6217C79.6677 10.4923 77.7155 10.6099 75.7634 10.8687C73.6466 11.1627 71.4945 11.5743 69.3424 12.0917C67.9195 10.3277 66.3318 8.7401 64.5914 7.37594C67.7901 6.1529 71.0594 5.0357 74.5051 4.20074C76.7042 3.67154 78.9504 3.23642 81.4905 3.1541C82.7841 3.11882 84.113 3.15411 85.6888 3.54219C86.4767 3.74211 87.3235 4.0361 88.229 4.61234C89.1227 5.11802 90.0518 6.04706 90.6986 7.14074C91.3219 8.25794 91.6511 9.56331 91.6394 10.5982C91.6629 11.6919 91.4865 12.5974 91.2866 13.4206C90.8515 15.0317 90.2047 16.2665 89.5579 17.3955C88.2407 19.6534 86.7472 21.4997 85.2302 23.2402C82.396 26.3919 79.3737 29.1672 76.2455 31.7779C75.9633 32.0131 75.7046 32.2366 75.4224 32.46C68.578 38.0225 61.2163 42.75 53.584 46.9248C45.9635 51.1349 37.8139 54.4277 29.2526 56.5445C28.7116 56.6739 28.1824 56.815 27.6415 56.9326H27.6297C23.8783 57.8263 20.068 58.5437 16.1402 58.9671C13.894 59.2258 11.6008 59.3434 9.16652 59.1905C7.93172 59.0964 6.67339 58.9318 5.29747 58.4849C4.60363 58.2497 3.88626 57.9557 3.15714 57.4265C2.42802 56.9796 1.74595 56.1682 1.25203 55.3097C0.828667 54.4042 0.593468 53.4046 0.664032 52.5579L0.675797 52.5461Z" fill="#FDCA00"/>
</svg>
