<svg width="208" height="210" viewBox="0 0 208 210" fill="none" xmlns="http://www.w3.org/2000/svg">
<path d="M143.272 57.7181C143.237 38.4787 143.166 19.2394 143.107 0C182.797 10.6193 207.364 25.3193 207.364 41.5599V149.517C207.364 133.3 182.88 118.623 143.319 108.016C143.319 91.2458 143.307 74.4879 143.272 57.7299V57.7181Z" fill="#6853B2"/>
<path d="M167.662 30.9993C187.831 39.6429 201.166 49.1803 205.835 59.094C205.835 61.7988 205.847 64.5036 205.847 67.2084C205.847 67.961 205.847 68.7137 205.847 69.4663C200.837 58.9881 186.149 48.9333 163.946 39.9017C162.17 39.1843 161.006 37.4438 160.994 35.5269C160.994 35.4917 160.994 35.4564 160.994 35.4211C160.971 31.9754 164.487 29.6469 167.65 30.9993H167.662Z" fill="url(#paint0_linear_15_1442)"/>
<path d="M167.662 61.8105C187.878 70.4776 201.225 80.0385 205.859 89.9757C205.859 93.4214 205.859 96.8553 205.859 100.301C200.861 89.811 186.161 79.7445 163.946 70.7128C162.17 69.9954 161.006 68.255 160.994 66.3381C160.994 66.3028 160.994 66.2675 160.994 66.2322C160.971 62.7866 164.487 60.4581 167.651 61.8105H167.662Z" fill="url(#paint1_linear_15_1442)"/>
<path d="M167.662 92.6099C187.972 101.312 201.355 110.932 205.929 120.916C205.953 124.409 205.988 127.902 206.023 131.394C201.155 120.799 186.384 110.626 163.946 101.512C162.17 100.795 161.006 99.0544 160.994 97.1375C160.994 97.1022 160.994 97.067 160.994 97.0317C160.971 93.586 164.487 91.2575 167.651 92.6099H167.662Z" fill="url(#paint2_linear_15_1442)"/>
<path d="M0.0233765 164.37C0.0233765 143.284 0.0351257 122.198 -0.000152588 101.113C115.448 99.5955 207.317 73.9587 207.317 42.5477V150.505C207.317 181.915 115.46 207.552 0.0233765 209.069C0.0233765 194.169 0.0233765 179.269 0.0233765 164.37Z" fill="url(#paint3_linear_15_1442)"/>
<path d="M68.5842 126.173C84.0133 123.986 99.3366 121.41 114.578 117.635C123.727 115.319 130.254 121.857 130.254 132.57V145.859C130.03 157.137 123.668 167.227 114.636 169.814C107.616 171.625 101.112 167.839 98.4781 161.1C94.0211 162.006 91.7279 162.441 87.0239 163.264C84.2721 171.026 77.3101 177.376 68.6313 178.54C59.482 179.857 48.1101 174.26 47.5456 161.394V148.023C48.2865 135.028 58.9998 127.443 68.5842 126.173Z" fill="#6853B2"/>
<path d="M112.813 128.537C114.918 128.008 116.588 129.56 116.588 132.018C116.588 134.476 114.93 136.922 112.825 137.463C110.72 137.992 108.956 136.404 108.956 133.946C108.956 131.477 110.708 129.066 112.813 128.537Z" fill="#BBBCF5"/>
<path d="M112.837 146.847C114.942 146.318 116.6 147.859 116.612 150.328C116.612 152.786 114.954 155.244 112.849 155.773C110.744 156.314 108.98 154.726 108.98 152.257C108.98 149.787 110.732 147.376 112.837 146.847Z" fill="#BBBCF5"/>
<path d="M120.446 135.652C122.445 135.087 124.009 136.604 124.009 139.062C124.009 141.52 122.445 144.001 120.458 144.566C118.47 145.13 116.8 143.59 116.788 141.12C116.788 138.662 118.447 136.216 120.446 135.652Z" fill="#BBBCF5"/>
<path d="M104.793 139.591C107.016 139.097 108.768 140.673 108.768 143.143C108.768 145.612 107.028 148.023 104.805 148.517C102.582 149.011 100.736 147.4 100.736 144.93C100.736 142.461 102.571 140.085 104.793 139.591Z" fill="#BBBCF5"/>
<path d="M57.3887 148.152C60.4111 147.823 61.9046 147.647 64.8563 147.282C64.8563 144.495 64.8563 143.096 64.8563 140.297C64.8563 138.415 66.4675 136.698 68.4314 136.451C68.7489 136.404 68.9136 136.392 69.2311 136.345C71.1832 136.087 72.7591 137.392 72.7591 139.262C72.7591 142.049 72.7591 143.448 72.7591 146.236C75.6403 145.836 77.0632 145.624 79.8621 145.189C81.7437 144.895 83.2607 146.165 83.2607 148.047C83.2607 148.352 83.2607 148.505 83.2607 148.811C83.2607 150.681 81.7555 152.457 79.8739 152.751C77.0632 153.186 75.652 153.397 72.7708 153.809C72.7708 156.596 72.7708 157.996 72.7708 160.783C72.7708 162.653 71.2067 164.405 69.2546 164.663C68.9371 164.711 68.7724 164.722 68.4549 164.769C66.491 165.028 64.8799 163.711 64.8799 161.829C64.8799 159.042 64.8799 157.643 64.8799 154.844C61.9281 155.208 60.4346 155.385 57.4123 155.714C55.3778 155.938 53.7196 154.585 53.7196 152.704C53.7196 152.398 53.7196 152.245 53.7196 151.927C53.7196 150.046 55.3778 148.352 57.4123 148.129L57.3887 148.152Z" fill="#BBBCF5"/>
<path d="M144.295 108.498C144.295 108.498 144.295 108.545 144.295 108.568C144.319 111.497 147.141 113.59 149.94 112.778C181.351 103.594 201.943 91.8691 207.223 78.8037L207.329 72.4651C199.814 84.7425 178.611 95.597 147.553 104.205C145.624 104.746 144.284 106.499 144.295 108.498Z" fill="#6853B2"/>
<path d="M144.625 132.97V133.041C144.648 135.957 147.471 138.062 150.269 137.239C158.878 134.723 166.663 132.03 173.531 129.172C191.382 121.763 203.107 113.272 207.164 103.994C207.188 103.958 207.211 103.923 207.223 103.864C207.223 103.864 207.235 103.864 207.223 103.853L207.317 97.4081C207.317 97.4081 207.294 97.4551 207.27 97.4786C200.79 107.533 185.126 116.589 162.37 124.233C157.819 125.761 152.986 127.231 147.87 128.643C145.942 129.172 144.601 130.948 144.613 132.947L144.625 132.97Z" fill="#6853B2"/>
<path d="M144.942 157.419V157.49C144.966 160.43 147.788 162.523 150.587 161.688C167.804 156.655 181.751 150.904 191.676 144.577C199.262 139.768 204.518 134.628 207.141 129.195C207.164 129.16 207.176 129.125 207.2 129.078L207.317 122.351C207.317 122.351 207.282 122.41 207.258 122.433C203.048 128.654 195.31 134.487 184.538 139.826C174.789 144.671 162.547 149.117 148.188 153.103C146.259 153.633 144.919 155.397 144.93 157.396L144.942 157.419Z" fill="#6853B2"/>
<defs>
<linearGradient id="paint0_linear_15_1442" x1="126.796" y1="40.9365" x2="259.073" y2="61.2813" gradientUnits="userSpaceOnUse">
<stop stop-color="#9187D3"/>
<stop offset="0.526042" stop-color="white" stop-opacity="0.390625"/>
<stop offset="1" stop-color="#79D296" stop-opacity="0"/>
<stop offset="1" stop-color="#9187D3"/>
</linearGradient>
<linearGradient id="paint1_linear_15_1442" x1="122.163" y1="71.0303" x2="254.451" y2="91.3869" gradientUnits="userSpaceOnUse">
<stop stop-color="#A89CFE"/>
<stop offset="1" stop-color="#9187D3"/>
</linearGradient>
<linearGradient id="paint2_linear_15_1442" x1="117.518" y1="101.254" x2="249.794" y2="121.61" gradientUnits="userSpaceOnUse">
<stop stop-color="#7763FD"/>
<stop offset="1" stop-color="#79D296" stop-opacity="0"/>
</linearGradient>
<linearGradient id="paint3_linear_15_1442" x1="207.329" y1="125.82" x2="-228.932" y2="125.82" gradientUnits="userSpaceOnUse">
<stop stop-color="#8E80EC"/>
<stop offset="1" stop-color="#6953B2" stop-opacity="0"/>
</linearGradient>
</defs>
</svg>
