<svg width="61" height="94" viewBox="0 0 61 94" fill="none" xmlns="http://www.w3.org/2000/svg">
<path d="M53.7159 73.839L23.9161 83.4705L30.4193 52.6828L60.3368 42.922L53.7159 73.839Z" fill="#3B3461"/>
<path d="M23.9161 83.4705L0.572514 62.6083L7.19338 31.703L30.4312 52.6828L23.9161 83.4705Z" fill="#6853B2"/>
<path d="M60.3368 42.922L30.4311 52.6828L7.19335 31.7029L37.099 21.9421L60.3368 42.922Z" fill="#9187D3"/>
<path d="M41.0033 38.8412L32.8536 41.499L26.5267 35.7836L34.6764 33.1259L41.0033 38.8412Z" fill="#6853B2"/>
<path d="M50.5407 67.9825H54.0687V81.8593H50.5407V67.9825Z" fill="#3B3461"/>
<path d="M50.5407 83.7997H54.0687V88.1274H50.5407V83.7997Z" fill="#3B3461"/>
<path d="M43.1436 73.5332H46.6716V93.4194H43.1436V73.5332Z" fill="#3B3461"/>
<path d="M2.03072 61.0088H5.55872V74.3446H2.03072V61.0088Z" fill="#6853B2"/>
<path d="M7.1346 83.0823H10.6626V92.8784H7.1346V83.0823Z" fill="#6853B2"/>
<path d="M7.1346 58.5275H10.6626V78.6959H7.1346V58.5275Z" fill="#6853B2"/>
<path d="M16.2956 11.6285H19.8236V31.7264H16.2956V11.6285Z" fill="#9187D3"/>
<path d="M16.2956 0.797607H19.8236V7.98297H16.2956V0.797607Z" fill="#9187D3"/>
<path d="M22.1521 18.814H25.6801V28.3984H22.1521V18.814Z" fill="#9187D3"/>
</svg>
