<svg width="48" height="89" viewBox="0 0 48 89" fill="none" xmlns="http://www.w3.org/2000/svg">
<path d="M6.86646e-05 48.1102L4.62176 23.2378L23.9905 39.7018L19.4158 64.7153L6.86646e-05 48.1102Z" fill="#6853B2"/>
<path d="M4.62181 23.2377L28.4241 14.6647L47.8516 31.2698L23.9905 39.7017L4.62181 23.2377Z" fill="#9187D3"/>
<path d="M14.2061 7.19714H17.7341V24.0845H14.2061V7.19714Z" fill="#9187D3"/>
<path d="M32.7869 11.0897H36.3149V28.6474H32.7869V11.0897Z" fill="#9187D3"/>
<path d="M32.7869 0H36.3149V7.19711H32.7869V0Z" fill="#9187D3"/>
<path d="M19.4159 64.7152L23.9905 39.7017L47.8516 31.2698L43.2769 56.2833L19.4159 64.7152Z" fill="#3B3461"/>
<path d="M31.8697 50.0153H35.3977V73.3824H31.8697V50.0153Z" fill="#3B3461"/>
<path d="M31.8697 78.2863H35.3977V88.4116H31.8697V78.2863Z" fill="#3B3461"/>
<path d="M23.3319 57.5181H26.8599V69.1722H23.3319V57.5181Z" fill="#3B3461"/>
<path d="M29.8942 52.3907L31.0937 45.8169L37.3735 43.5942L36.174 50.1798L29.8942 52.3907Z" fill="#9187D3"/>
</svg>
