<svg width="139" height="163" viewBox="0 0 139 163" fill="none" xmlns="http://www.w3.org/2000/svg">
<path d="M138.133 0.0706787C138.133 3.71628 138.121 7.36186 138.097 11.0075C138.039 27.1892 137.98 43.371 137.909 59.5527C57.4591 68.1846 0.622986 89.3173 0.622986 114.025V54.5665C0.622986 29.8352 57.5649 8.679 138.121 0.0706787H138.133Z" fill="#6853B2"/>
<path d="M2.30471 69.7722C2.66927 67.2908 3.75118 65.3975 5.67982 63.7864C7.5379 62.234 9.54884 61.1286 11.795 60.2701C16.5696 58.4356 21.9203 58.4591 26.9654 58.7531C32.1163 59.0588 36.9026 59.4587 41.83 58.1769C42.3005 58.0593 42.7709 57.9181 43.2295 57.777C43.841 57.5771 44.0174 57.4948 44.1938 57.4125C44.6995 57.1773 45.1934 56.9185 45.6756 56.6363C45.946 56.4717 46.2165 56.307 46.487 56.1424C46.5576 56.0953 46.7105 55.9895 46.8045 55.9307C47.5807 55.3192 48.2981 54.5666 48.8978 53.7786C48.9449 53.6963 49.3917 53.026 49.4623 52.9084C49.7916 52.3792 50.0973 51.85 50.3913 51.2973C52.5787 47.1813 53.9546 42.6066 56.8476 38.9022C59.4818 35.5271 63.0098 32.8811 66.7377 30.8819C74.5346 26.6836 83.531 25.5781 92.2217 26.8365C98.0546 27.6832 103.829 29.3296 109.415 31.1524C115.307 33.081 121.234 34.8097 126.867 37.4557C129.007 38.4671 129.63 41.4894 128.513 43.4416C127.325 45.5231 124.609 46.2522 122.527 45.088C118.035 42.5831 114.001 39.3138 109.438 36.9618C104.887 34.6216 100.242 32.74 95.1969 31.7874C87.2707 30.2939 78.3566 31.3523 71.3241 35.4095C67.9255 37.3734 65.5029 39.7137 63.6096 42.9594C61.2928 46.9343 60.2933 50.5328 58.3058 54.7076C56.2713 58.9765 53.1432 62.9632 48.7332 64.9389C44.1938 66.9733 39.5133 67.2438 34.6212 66.8675C28.9411 66.4324 22.8847 64.6919 17.1928 65.668C12.7123 66.4324 9.3842 68.8079 6.39716 72.136C4.60964 74.1117 1.97542 71.9596 2.29294 69.784L2.30471 69.7722Z" fill="#BBBCF5"/>
<path d="M0.634811 54.9781V114.437C0.634811 134.17 36.8791 151.622 92.4451 162.241C92.4569 147.459 92.4687 132.676 92.5627 117.894C92.5863 112.873 92.6098 107.851 92.6333 102.83C36.9615 92.2103 0.634811 74.7467 0.634811 54.9781Z" fill="url(#paint0_linear_15_1321)"/>
<path d="M0.634727 83.3197V88.3765C4.7272 90.5874 8.14936 94.3859 10.96 97.8668C15.4523 103.418 18.851 109.744 23.2022 115.389C27.2358 120.611 32.1515 125.362 38.1844 128.172C44.5466 131.148 51.4026 131.642 58.2117 130.054C65.009 128.478 70.9713 124.562 76.6749 120.681C78.58 119.376 79.4855 117.012 78.2625 114.872C77.2041 113.014 74.3464 111.955 72.4648 113.272C69.3837 115.448 66.2555 117.6 62.9627 119.435C59.9404 121.116 56.6829 122.822 53.2607 123.48C40.5364 125.938 31.8222 112.602 25.66 103.923C21.5793 98.1961 17.428 92.563 11.7009 88.3765C8.40809 85.9657 4.59783 84.284 0.622955 83.3314L0.634727 83.3197Z" fill="#6853B2"/>
<defs>
<linearGradient id="paint0_linear_15_1321" x1="-8.99663" y1="65.2917" x2="112.884" y2="170.12" gradientUnits="userSpaceOnUse">
<stop stop-color="#9187D3"/>
<stop offset="1" stop-color="#1E1840" stop-opacity="0.1"/>
</linearGradient>
</defs>
</svg>
