<svg width="49" height="90" viewBox="0 0 49 90" fill="none" xmlns="http://www.w3.org/2000/svg">
<path d="M0.483345 48.9161L5.10503 24.0437L24.4738 40.5077L19.8991 65.5212L0.483345 48.9161Z" fill="#6853B2"/>
<path d="M5.10508 24.0436L28.9073 15.4706L48.3348 32.0757L24.4738 40.5076L5.10508 24.0436Z" fill="#9187D3"/>
<path d="M14.6895 8.00305H18.2175V24.8904H14.6895V8.00305Z" fill="#9187D3"/>
<path d="M33.2703 11.8956H36.7983V29.4533H33.2703V11.8956Z" fill="#9187D3"/>
<path d="M33.2703 0.805908H36.7983V8.00302H33.2703V0.805908Z" fill="#9187D3"/>
<path d="M19.8992 65.5211L24.4738 40.5076L48.3348 32.0757L43.7602 57.0892L19.8992 65.5211Z" fill="#3B3461"/>
<path d="M32.353 50.8212H35.881V74.1883H32.353V50.8212Z" fill="#3B3461"/>
<path d="M32.353 79.0922H35.881V89.2175H32.353V79.0922Z" fill="#3B3461"/>
<path d="M23.8153 58.324H27.3433V69.9781H23.8153V58.324Z" fill="#3B3461"/>
<path d="M30.3773 53.1966L31.5768 46.6228L37.8567 44.4001L36.6572 50.9858L30.3773 53.1966Z" fill="#9187D3"/>
</svg>
